#N canvas 2435 978 1085 474 10;
#X declare -stdpath Fraise;
#N canvas 559 295 718 471 Cycle 0;
#X obj 180 -24 r CYCLEplay;
#X obj 180 26 sel 0 1;
#X obj 213 249 r CYCLEplay;
#X obj 180 271 spigot;
#X obj 199 49 s CYCLEbegin;
#X obj 180 293 s CYCLEbegin;
#X obj 180 101 r CYCLEbegin;
#N canvas 1021 136 505 315 homing 0;
#X obj 145 21 inlet;
#X obj 101 184 t b b;
#X obj 101 145 spigot 1;
#X obj 198 154 tgl 15 0 empty empty empty 17 7 0 10 -262144 -1 -1 0
1;
#X msg 198 125 0;
#X msg 229 124 1;
#X obj 101 111 r homingDone;
#X obj 145 46 t b b;
#X obj 101 215 outlet;
#X obj 198 98 r CYCLEabort;
#X obj 278 243 s Avance-AvanceG-ramp-params;
#X msg 278 220 speed \$1;
#X obj 293 175 r CYCLEspeedRecule;
#X obj 249 172 t b b;
#X obj 249 265 s doHoming;
#X obj 278 198 200;
#X obj 337 128 bng 15 250 50 0 empty empty empty 17 7 0 10 -262144
-1 -1;
#X connect 0 0 7 0;
#X connect 1 0 8 0;
#X connect 1 1 4 0;
#X connect 2 0 1 0;
#X connect 3 0 2 1;
#X connect 4 0 3 0;
#X connect 5 0 3 0;
#X connect 6 0 2 0;
#X connect 7 0 13 0;
#X connect 7 1 5 0;
#X connect 9 0 4 0;
#X connect 11 0 10 0;
#X connect 12 0 15 1;
#X connect 13 0 14 0;
#X connect 13 1 15 0;
#X connect 15 0 11 0;
#X restore 180 151 pd homing;
#N canvas 309 108 530 279 Avance 0;
#X obj 214 56 inlet;
#X obj 53 220 t b b;
#X obj 53 181 spigot 1;
#X obj 150 190 tgl 15 0 empty empty empty 17 7 0 10 -262144 -1 -1 0
1;
#X msg 150 161 0;
#X msg 181 160 1;
#X obj 214 81 t b b;
#X obj 53 251 outlet;
#X obj 231 223 s PositionGoto;
#X obj 246 167 r CYCLElength;
#X obj 231 200 f;
#X obj 53 9 r POSconsign;
#X obj 68 53 r CYCLElength;
#X obj 53 77 ==;
#X obj 53 98 sel 0 1;
#X obj 53 149 del 10000;
#X msg 53 125 stop;
#X obj 53 32 change;
#X obj 150 11 r CYCLEbegin;
#X obj 163 35 r CYCLEabort;
#X obj 11 114 tgl 15 0 empty empty empty 17 7 0 10 -262144 -1 -1 0
1;
#X obj 19 44 bng 15 250 50 0 empty empty empty 17 7 0 10 -262144 -1
-1;
#X obj 231 133 t b b;
#X obj 335 225 s Avance-AvanceG-ramp-params;
#X msg 335 202 speed \$1;
#X obj 350 157 r CYCLEspeedAvance;
#X obj 335 180 f;
#X connect 0 0 6 0;
#X connect 1 0 7 0;
#X connect 1 1 4 0;
#X connect 2 0 1 0;
#X connect 3 0 2 1;
#X connect 4 0 3 0;
#X connect 4 0 16 0;
#X connect 5 0 3 0;
#X connect 6 0 22 0;
#X connect 6 1 5 0;
#X connect 9 0 10 1;
#X connect 10 0 8 0;
#X connect 11 0 17 0;
#X connect 12 0 13 1;
#X connect 13 0 14 0;
#X connect 13 0 20 0;
#X connect 14 0 16 0;
#X connect 14 1 15 0;
#X connect 15 0 2 0;
#X connect 16 0 15 0;
#X connect 17 0 13 0;
#X connect 18 0 4 0;
#X connect 19 0 4 0;
#X connect 21 0 13 0;
#X connect 22 0 10 0;
#X connect 22 1 26 0;
#X connect 24 0 23 0;
#X connect 25 0 26 1;
#X connect 26 0 24 0;
#X restore 180 183 pd Avance;
#X obj 323 -11 tgl 40 0 CYCLEplay CYCLEplay-rcv CYCLEplay -15 -8 0
14 -4034 -1 -1 0 1;
#X obj 510 -11 r CYCLEplay;
#X msg 510 13 set \$1;
#X obj 510 34 s CYCLEplay-rcv;
#N canvas 188 343 514 334 Recule 0;
#X obj 220 84 inlet;
#X obj 53 220 t b b;
#X obj 53 181 spigot 1;
#X obj 150 190 tgl 15 0 empty empty empty 17 7 0 10 -262144 -1 -1 0
1;
#X msg 150 161 0;
#X msg 181 160 1;
#X obj 220 109 t b b;
#X obj 53 251 outlet;
#X obj 220 230 s PositionGoto;
#X obj 53 9 r POSconsign;
#X obj 53 98 sel 0 1;
#X obj 53 149 del 10000;
#X msg 53 125 stop;
#X obj 53 32 change;
#X obj 150 11 r CYCLEbegin;
#X obj 165 34 r CYCLEabort;
#X obj 220 149 t b b;
#X obj 345 235 s Avance-AvanceG-ramp-params;
#X msg 345 212 speed \$1;
#X obj 345 190 f;
#X obj 360 167 r CYCLEspeedRecule;
#X obj 220 207 f -6;
#X obj 53 77 <= -4;
#X msg 6 13 set -1;
#X connect 0 0 6 0;
#X connect 1 0 7 0;
#X connect 1 1 4 0;
#X connect 2 0 1 0;
#X connect 3 0 2 1;
#X connect 4 0 3 0;
#X connect 4 0 12 0;
#X connect 5 0 3 0;
#X connect 6 0 16 0;
#X connect 6 1 5 0;
#X connect 9 0 13 0;
#X connect 10 0 12 0;
#X connect 10 1 11 0;
#X connect 11 0 2 0;
#X connect 12 0 11 0;
#X connect 13 0 22 0;
#X connect 14 0 4 0;
#X connect 15 0 4 0;
#X connect 16 0 21 0;
#X connect 16 1 19 0;
#X connect 18 0 17 0;
#X connect 19 0 18 0;
#X connect 20 0 19 1;
#X connect 21 0 8 0;
#X connect 22 0 10 0;
#X connect 23 0 13 0;
#X restore 180 212 pd Recule;
#X obj 42 -22 r CYCLEstop;
#X obj 81 45 s CYCLEplay;
#X msg 81 23 0;
#X obj 180 -1 change;
#X obj 61 72 s CYCLEabort;
#X obj 414 -10 bng 30 250 50 0 CYCLEstop empty CYCLEstop -10 -8 0 10
-258113 -1 -1;
#X msg 42 98 0;
#X obj 42 120 s Vitesse;
#X obj 42 1 t b b b;
#X obj 64 182 s CYCLEavanceBegin;
#X obj 65 213 s CYCLEreculeBegin;
#N canvas 898 325 406 419 Conversions-longueur-vitesse 0;
#X obj 38 217 s CYCLElength;
#X obj 53 103 r stepcm;
#X obj 38 123 *;
#X text 62 122 step/mn;
#X obj 154 172 r stepmn_by_speed;
#X obj 126 173 /;
#X obj 126 151 /;
#X obj 120 363 s Avance-AvanceG-ramp-params;
#X msg 120 340 speed \$1;
#X obj 223 33 r CYCLElength;
#X floatatom 223 61 5 0 0 0 - - -;
#X text 148 147 step/mn;
#X obj 38 30 inlet;
#X floatatom 65 173 5 0 0 0 - - -;
#X obj 16 102 bng 15 250 50 0 empty empty empty 17 7 0 10 -262144 -1
-1;
#X obj 38 168 i;
#X obj 38 57 unpack f f f;
#X obj 295 172 r stepmn_by_speed;
#X obj 267 173 /;
#X obj 267 151 /;
#X text 289 147 step/mn;
#X obj 126 223 s CYCLEspeedAvance;
#X floatatom 146 202 5 0 0 0 - - -;
#X floatatom 286 199 5 0 0 0 - - -;
#X obj 267 219 s CYCLEspeedRecule;
#X obj 135 295 r CYCLEspeedAvance;
#X obj 120 318 f;
#X msg 102 25 1000 10 5;
#X msg 356 90 500 5 1.5;
#X msg 139 47 500 5 1;
#X msg 191 77 900 9 2;
#X connect 1 0 2 1;
#X connect 2 0 6 0;
#X connect 2 0 13 0;
#X connect 2 0 15 0;
#X connect 2 0 19 0;
#X connect 4 0 5 1;
#X connect 5 0 22 0;
#X connect 5 0 21 0;
#X connect 6 0 5 0;
#X connect 8 0 7 0;
#X connect 9 0 10 0;
#X connect 12 0 16 0;
#X connect 14 0 2 0;
#X connect 15 0 0 0;
#X connect 16 0 2 0;
#X connect 16 1 6 1;
#X connect 16 2 19 1;
#X connect 17 0 18 1;
#X connect 18 0 24 0;
#X connect 18 0 23 0;
#X connect 19 0 18 0;
#X connect 25 0 26 1;
#X connect 26 0 8 0;
#X connect 27 0 16 0;
#X connect 29 0 16 0;
#X connect 30 0 16 0;
#X restore 250 198 pd Conversions-longueur-vitesse;
#X obj 180 126 t b b;
#X obj 250 177 list prepend;
#X obj 319 155 r CYCLE_cm_mn;
#X obj 461 75 r CYCLElength;
#X floatatom 461 103 5 0 0 1 steps - -;
#X obj 500 178 r CYCLEavanceBegin;
#X obj 528 223 r CYCLEreculeBegin;
#X obj 491 268 timer;
#X obj 545 266 timer;
#X obj 479 349 print mesureAvanceTime;
#X obj 543 323 print mesureReculeTime;
#X obj 418 317 / 60000;
#X obj 540 295 / 60000;
#X obj 313 87 bng 15 250 50 0 empty empty empty 17 7 0 10 -262144 -1
-1;
#X obj 25 157 bng 15 250 50 0 empty empty empty 17 7 0 10 -262144 -1
-1;
#X obj 86 97 del 1000;
#X msg 130 16 stop;
#X connect 0 0 17 0;
#X connect 1 1 4 0;
#X connect 1 1 39 0;
#X connect 1 1 42 0;
#X connect 2 0 3 1;
#X connect 3 0 5 0;
#X connect 6 0 26 0;
#X connect 7 0 8 0;
#X connect 7 0 23 0;
#X connect 8 0 13 0;
#X connect 8 0 24 0;
#X connect 10 0 11 0;
#X connect 11 0 12 0;
#X connect 13 0 3 0;
#X connect 14 0 22 0;
#X connect 16 0 15 0;
#X connect 17 0 1 0;
#X connect 20 0 21 0;
#X connect 22 0 20 0;
#X connect 22 0 40 0;
#X connect 22 0 41 0;
#X connect 22 1 18 0;
#X connect 22 2 16 0;
#X connect 26 0 7 0;
#X connect 26 1 27 0;
#X connect 27 0 25 0;
#X connect 28 0 27 1;
#X connect 29 0 30 0;
#X connect 31 0 33 0;
#X connect 31 0 34 1;
#X connect 32 0 33 1;
#X connect 32 0 34 0;
#X connect 33 0 37 0;
#X connect 34 0 38 0;
#X connect 37 0 35 0;
#X connect 38 0 36 0;
#X connect 41 0 20 0;
#X connect 42 0 41 0;
#X restore 180 101 pd Cycle;
#X obj 663 336 tgl 40 0 CYCLEplay CYCLEplay-rcv CYCLEplay -15 -8 0
14 -4034 -1 -1 0 1;
#X obj 744 337 bng 30 250 50 0 CYCLEstop empty CYCLEstop -10 -8 0 10
-258113 -1 -1;
#N canvas 663 149 652 608 States 0;
#X obj 78 35 tgl 15 0 empty empty empty 17 7 0 10 -262144 -1 -1 0 1
;
#N canvas 772 346 506 358 fruitAvanceConnected 0;
#X obj 76 22 inlet;
#X obj 76 296 outlet;
#X msg 283 205 color 13 13 22;
#X msg 382 204 color 16 16 22;
#X obj 125 92 t b f;
#X obj 76 92 * 2;
#X obj 76 131 +;
#X obj 91 171 sel 0 1 2 3;
#X obj 76 252 == 3;
#X msg 185 204 color 26 26 22;
#X msg 91 203 color 23 23 22;
#X obj 193 106 loadbang;
#X msg 193 126 0;
#X obj 125 42 route present;
#X obj 133 254 s fruitAvanceConnected;
#X obj 148 134 outlet;
#X obj 125 19 fruit/receive Lyre;
#X connect 0 0 5 0;
#X connect 2 0 14 0;
#X connect 3 0 14 0;
#X connect 4 0 6 0;
#X connect 4 1 6 1;
#X connect 4 1 15 0;
#X connect 5 0 6 0;
#X connect 6 0 7 0;
#X connect 6 0 8 0;
#X connect 7 0 10 0;
#X connect 7 1 9 0;
#X connect 7 2 2 0;
#X connect 7 3 3 0;
#X connect 8 0 1 0;
#X connect 9 0 14 0;
#X connect 10 0 14 0;
#X connect 11 0 12 0;
#X connect 12 0 7 0;
#X connect 13 0 4 0;
#X connect 16 0 13 0;
#X restore 78 96 pd fruitAvanceConnected;
#N canvas 437 330 626 384 piedUSBConnected 0;
#X obj 76 22 inlet;
#X obj 76 296 outlet;
#X msg 283 223 color 13 13 22;
#X msg 382 222 color 16 16 22;
#X obj 125 20 r Fr2;
#X obj 125 42 route 1;
#X obj 125 64 route actif;
#X obj 125 92 t b f;
#X obj 76 92 * 2;
#X obj 76 131 +;
#X obj 76 252 == 3;
#X msg 185 222 color 26 26 22;
#X msg 91 221 color 23 23 22;
#X obj 193 106 loadbang;
#X msg 193 126 0;
#X obj 91 171 sel 0 1 2 3 -1;
#X obj 150 273 s piedUSBConnected;
#X msg 481 221 color 1 1 22;
#X obj 138 124 outlet;
#X connect 0 0 8 0;
#X connect 2 0 16 0;
#X connect 3 0 16 0;
#X connect 4 0 5 0;
#X connect 5 0 6 0;
#X connect 6 0 7 0;
#X connect 7 0 9 0;
#X connect 7 1 9 1;
#X connect 7 1 18 0;
#X connect 8 0 9 0;
#X connect 9 0 10 0;
#X connect 9 0 15 0;
#X connect 10 0 1 0;
#X connect 11 0 16 0;
#X connect 12 0 16 0;
#X connect 13 0 14 0;
#X connect 14 0 15 0;
#X connect 15 0 12 0;
#X connect 15 1 11 0;
#X connect 15 2 2 0;
#X connect 15 3 3 0;
#X connect 17 0 16 0;
#X restore 78 69 pd piedUSBConnected;
#N canvas 798 323 506 358 stopSwitch(ArretUrgence) 0;
#X obj 26 19 inlet;
#X msg 292 259 color 13 13 22;
#X msg 193 258 color 16 16 22;
#X obj 264 133 loadbang;
#X obj 104 12 r StopSwitch;
#X obj 223 316 s stopSwitch(ArretUrgence);
#X obj 171 71 outlet;
#X msg 26 171 0;
#X obj 99 126 spigot;
#X msg 57 170 1;
#X obj 26 328 outlet;
#X obj 26 206 f;
#X msg 99 259 color 23 23 22;
#X obj 26 87 sel 0 1;
#X obj 211 36 s StopSwitch;
#X obj 104 61 sel 1 0;
#X obj 211 15 inlet testStopSwitch;
#X obj 200 112 tgl 15 0 empty empty empty 17 7 0 10 -262144 -1 -1 0
1;
#X obj 3 65 tgl 15 0 empty empty empty 17 7 0 10 -262144 -1 -1 0 1
;
#X obj 26 50 change;
#X obj 104 33 t f f;
#X connect 0 0 8 1;
#X connect 0 0 19 0;
#X connect 1 0 5 0;
#X connect 2 0 5 0;
#X connect 3 0 12 0;
#X connect 4 0 20 0;
#X connect 7 0 11 0;
#X connect 8 0 9 0;
#X connect 9 0 11 0;
#X connect 9 0 2 0;
#X connect 11 0 10 0;
#X connect 12 0 5 0;
#X connect 13 0 7 0;
#X connect 13 0 12 0;
#X connect 13 1 1 0;
#X connect 15 0 7 0;
#X connect 15 0 1 0;
#X connect 15 1 8 0;
#X connect 16 0 14 0;
#X connect 19 0 13 0;
#X connect 20 0 15 0;
#X connect 20 1 6 0;
#X restore 78 348 pd stopSwitch(ArretUrgence);
#X obj 50 140 tgl 15 0 empty empty empty 17 7 0 10 -262144 -1 -1 0
1;
#N canvas 46 459 506 358 CurrentAvanceOK 0;
#X obj 52 67 inlet;
#X obj 52 323 outlet;
#X msg 259 250 color 13 13 22;
#X msg 358 249 color 16 16 22;
#X obj 89 137 t b f;
#X obj 52 137 * 2;
#X obj 52 176 +;
#X obj 67 216 sel 0 1 2 3;
#X obj 52 297 == 3;
#X msg 161 249 color 26 26 22;
#X msg 67 248 color 23 23 22;
#X obj 169 151 loadbang;
#X msg 169 171 0;
#X obj 101 89 max;
#X obj 108 68 t b f;
#X obj 101 24 r avance_courantX;
#X obj 108 47 r avance_courantY;
#X obj 109 299 s CurrentAvanceOK;
#X obj 102 173 outlet;
#X obj 267 68 init 0;
#X obj 101 113 currentOK 2500 5;
#X connect 0 0 5 0;
#X connect 2 0 17 0;
#X connect 3 0 17 0;
#X connect 4 0 6 0;
#X connect 4 1 6 1;
#X connect 4 1 18 0;
#X connect 5 0 6 0;
#X connect 6 0 7 0;
#X connect 6 0 8 0;
#X connect 7 0 10 0;
#X connect 7 1 9 0;
#X connect 7 2 2 0;
#X connect 7 3 3 0;
#X connect 8 0 1 0;
#X connect 9 0 17 0;
#X connect 10 0 17 0;
#X connect 11 0 12 0;
#X connect 12 0 7 0;
#X connect 13 0 20 0;
#X connect 14 0 13 0;
#X connect 14 1 13 1;
#X connect 15 0 13 0;
#X connect 16 0 14 0;
#X connect 19 0 20 0;
#X connect 20 0 4 0;
#X restore 78 237 pd CurrentAvanceOK;
#X obj 443 53 hsl 150 30 0 127 0 0 --null-- piedUSBConnected piedUSBConnected
2 15 0 10 -42246 -42246 -1 0 1;
#X obj 443 91 hsl 150 30 0 127 0 0 --null-- fruitAvanceConnected fruitAvanceConnected
2 15 0 10 -42246 -42246 -1 0 1;
#X obj 443 123 hsl 150 30 0 127 0 0 --null-- fruitDirectionConnected
fruitDirectionConnected 2 15 0 10 -143491 -143491 -1 0 1;
#X obj 443 164 hsl 150 30 0 127 0 0 --null-- sidesSecuOK sidesSecuOK
2 15 0 10 -143491 -143491 -1 0 1;
#X obj 443 242 hsl 150 30 0 127 0 0 --null-- CurrentDirectionOK CurrentDirectionOK
2 15 0 10 -143491 -143491 -1 0 1;
#X obj 443 274 hsl 150 30 0 127 0 0 --null-- CurrentAvanceOK CurrentAvanceOK
2 15 0 10 -143491 -143491 -1 0 1;
#X obj 442 319 hsl 150 30 0 127 0 0 --null-- stopSwitch(ArretUrgence)
stopSwitch(ArretUrgence) 2 15 0 10 -143491 -143491 -1 0 1;
#X obj 202 71 tgl 15 0 empty empty empty 17 7 0 10 -262144 -1 -1 1
1;
#X obj 224 98 tgl 15 0 empty empty empty 17 7 0 10 -262144 -1 -1 1
1;
#X obj 236 213 tgl 15 0 empty empty empty 17 7 0 10 -262144 -1 -1 0
1;
#X obj 211 238 tgl 15 0 empty empty empty 17 7 0 10 -262144 -1 -1 0
1;
#X obj 285 354 tgl 15 0 empty empty empty 17 7 0 10 -262144 -1 -1 0
1;
#X obj 51 319 tgl 15 0 empty empty empty 17 7 0 10 -262144 -1 -1 0
1;
#X obj 73 446 sel 0 1;
#X obj 72 472 bng 15 250 50 0 empty empty empty 17 7 0 10 -262144 -1
-1;
#X obj 105 473 bng 15 250 50 0 empty empty empty 17 7 0 10 -262144
-1 -1;
#X obj 78 374 change;
#X obj 237 327 tgl 15 0 empty empty testStopSwitch 17 7 0 10 -258113
-1 -1 0 1;
#X obj 105 519 s CYCLEplay;
#X msg 105 497 1;
#X obj 72 545 s CYCLEstop;
#X obj 78 400 spigot 1;
#X obj 148 398 tgl 15 0 empty empty empty 17 7 0 10 -262144 -1 -1 0
1;
#X obj 77 12 init 1;
#X obj 444 373 change;
#X obj 443 196 hsl 150 30 0 127 0 0 --null-- sidesDistanceOK sidesDistanceOK
2 15 0 10 -143491 -143491 -1 0 1;
#X obj 77 422 t f f;
#X obj 266 430 tgl 15 0 empty empty empty 17 7 0 10 -262144 -1 -1 0
1;
#X obj 248 481 && 1;
#X obj 266 453 t b f;
#X obj 215 455 == 0;
#X obj 250 507 tgl 15 0 empty empty empty 17 7 0 10 -262144 -1 -1 0
1;
#X obj 314 498 metro 1000;
#X msg 314 523 0;
#X obj 314 545 s Vitesse;
#X obj 226 54 print piedUSBConnected;
#X obj 251 90 print fruitAvanceConnected;
#X obj 242 267 print CurrentDirectionOK;
#X obj 188 287 print CurrentAvanceOK;
#X obj 266 377 change;
#X obj 265 399 print stopSwitch(ArretUrgence);
#X obj 243 245 change -1;
#X obj 189 265 change -1;
#X obj 50 277 tgl 15 0 empty empty empty 17 7 0 10 -262144 -1 -1 0
1;
#N canvas 145 509 506 358 CurrentLyreOK 0;
#X obj 52 67 inlet;
#X obj 52 323 outlet;
#X msg 259 250 color 13 13 22;
#X msg 358 249 color 16 16 22;
#X obj 89 137 t b f;
#X obj 52 137 * 2;
#X obj 52 176 +;
#X obj 67 216 sel 0 1 2 3;
#X obj 52 297 == 3;
#X msg 161 249 color 26 26 22;
#X msg 67 248 color 23 23 22;
#X obj 169 151 loadbang;
#X msg 169 171 0;
#X obj 101 89 max;
#X obj 108 68 t b f;
#X obj 109 299 s CurrentDirectionOK;
#X obj 118 169 outlet;
#X obj 277 78 init 0;
#X obj 101 24 r courantX;
#X obj 113 47 r courantY;
#X obj 100 110 currentOK 3000 2.5;
#X connect 0 0 5 0;
#X connect 2 0 15 0;
#X connect 3 0 15 0;
#X connect 4 0 6 0;
#X connect 4 1 6 1;
#X connect 4 1 16 0;
#X connect 5 0 6 0;
#X connect 6 0 7 0;
#X connect 6 0 8 0;
#X connect 7 0 10 0;
#X connect 7 1 9 0;
#X connect 7 2 2 0;
#X connect 7 3 3 0;
#X connect 8 0 1 0;
#X connect 9 0 15 0;
#X connect 10 0 15 0;
#X connect 11 0 12 0;
#X connect 12 0 7 0;
#X connect 13 0 20 0;
#X connect 14 0 13 0;
#X connect 14 1 13 1;
#X connect 17 0 20 0;
#X connect 18 0 13 0;
#X connect 19 0 14 0;
#X connect 20 0 4 0;
#X restore 78 216 pd CurrentLyreOK;
#X obj 50 160 s RegulYOn;
#X obj 120 161 s RegulXOn;
#X connect 0 0 2 0;
#X connect 1 0 4 0;
#X connect 1 1 14 0;
#X connect 1 1 42 0;
#X connect 2 0 1 0;
#X connect 2 1 13 0;
#X connect 3 0 22 0;
#X connect 3 1 17 0;
#X connect 4 0 51 0;
#X connect 4 0 52 0;
#X connect 5 0 3 0;
#X connect 5 1 16 0;
#X connect 5 1 48 0;
#X connect 13 0 41 0;
#X connect 17 0 45 0;
#X connect 18 0 3 0;
#X connect 19 0 20 0;
#X connect 19 1 21 0;
#X connect 20 0 26 0;
#X connect 21 0 25 0;
#X connect 22 0 27 0;
#X connect 23 0 3 1;
#X connect 25 0 24 0;
#X connect 27 0 32 0;
#X connect 28 0 27 1;
#X connect 29 0 0 0;
#X connect 32 0 19 0;
#X connect 32 1 36 0;
#X connect 33 0 35 0;
#X connect 34 0 37 0;
#X connect 35 0 34 0;
#X connect 35 1 34 1;
#X connect 36 0 34 0;
#X connect 37 0 38 0;
#X connect 38 0 39 0;
#X connect 39 0 40 0;
#X connect 45 0 46 0;
#X connect 47 0 43 0;
#X connect 48 0 44 0;
#X connect 50 0 5 0;
#X connect 50 1 15 0;
#X connect 50 1 47 0;
#X restore 122 101 pd States;
#X obj 670 9 hsl 150 30 0 127 0 0 --null-- piedUSBConnected piedUSBConnected
2 15 0 10 -42246 -42246 -1 0 1;
#X obj 670 47 hsl 150 30 0 127 0 0 --null-- fruitAvanceConnected fruitAvanceConnected
2 15 0 10 -42246 -42246 -1 0 1;
#X obj 670 79 hsl 150 30 0 127 0 0 --null-- fruitDirectionConnected
fruitDirectionConnected 2 15 0 10 -143491 -143491 -1 0 1;
#X obj 670 120 hsl 150 30 0 127 0 0 --null-- sidesSecuOK sidesSecuOK
2 15 0 10 -143491 -143491 -1 0 1;
#X obj 671 197 hsl 150 30 0 127 0 0 --null-- CurrentDirectionOK CurrentDirectionOK
2 15 0 10 -143491 -143491 -1 0 1;
#X obj 670 230 hsl 150 30 0 127 0 0 --null-- CurrentAvanceOK CurrentAvanceOK
2 15 0 10 -143491 -143491 -1 0 1;
#X obj 669 280 hsl 150 30 0 127 0 0 --null-- stopSwitch(ArretUrgence)
stopSwitch(ArretUrgence) 2 15 0 10 -143491 -143491 -1 0 1;
#X obj 513 60 tgl 30 0 StopSwitch empty testStopSwitch 17 7 0 10 -258113
-1 -1 0 1;
#X obj 877 49 loadbang;
#X obj 877 148 s CYCLE_cm_mn;
#X text 837 21 SET CYCLE: LENGTH(cm) TIME-AV(mn) TIME-AR(mn);
#X msg 943 52 1000 10 10;
#X text 1012 51 = 10m / 10mn / 10mn;
#X msg 997 112 500 5 1.5;
#X obj 670 153 hsl 150 30 0 127 0 0 --null-- sidesDistanceOK sidesDistanceOK
2 15 0 10 -143491 -143491 -1 0 1;
#X text 935 84 = 5m / 5mn / 1mn;
#X text 850 177 Mesure pour 5/5/1 : avance=5.85mn recule=2.47mn;
#X obj 35 302 import iemlib list-abs;
#X msg 877 85 900 11 3;
#N canvas 566 179 1158 743 LYRE 0;
#N canvas 471 177 448 444 analog 0;
#X obj 152 -57 inlet;
#X obj 152 -20 list split 1;
#X obj 104 21 route float;
#X obj 104 51 moses 100;
#X obj 124 75 - 100;
#X obj 124 97 moses 16;
#X obj 158 214 +;
#X obj 124 166 unpack f f f;
#X obj 124 243 pack f f;
#X obj 124 264 outlet;
#X obj 219 55 t a;
#X obj 124 145 list split 3;
#X obj 124 120 list append;
#X obj 158 191 * 256;
#X connect 0 0 1 0;
#X connect 1 0 2 0;
#X connect 1 1 12 1;
#X connect 2 0 3 0;
#X connect 3 1 4 0;
#X connect 4 0 5 0;
#X connect 5 0 12 0;
#X connect 6 0 8 1;
#X connect 7 0 8 0;
#X connect 7 1 13 0;
#X connect 7 2 6 1;
#X connect 8 0 9 0;
#X connect 10 0 1 0;
#X connect 11 0 7 0;
#X connect 11 1 10 0;
#X connect 12 0 11 0;
#X connect 13 0 6 0;
#X restore 42 86 pd analog;
#X floatatom 43 221 5 0 0 0 - - -;
#X floatatom 86 206 5 0 0 0 - - -;
#X floatatom 236 201 5 0 0 0 - - -;
#X floatatom 383 212 7 0 0 0 - - -;
#X obj 243 231 hsl 128 15 0 32767 0 0 empty empty accX -2 -8 0 10 -262144
-1 -1 0 1;
#X obj 88 235 hsl 128 15 0 2000 0 0 empty empty courantY -2 -8 0 10
-262144 -1 -1 0 1;
#X obj 46 265 hsl 128 15 0 2000 0 0 empty empty courantX -2 -8 0 10
-262144 -1 -1 0 1;
#X obj 386 244 hsl 128 15 0 32767 0 0 empty empty accZ -2 -8 0 10 -262144
-1 -1 0 1;
#N canvas 740 282 450 300 switch 0;
#X obj 150 266 outlet;
#X obj 88 44 unwonk f;
#X obj 177 185 l;
#X obj 150 163 t f b;
#X obj 150 241 pack f f;
#X obj 88 117 moses 1;
#X obj 177 208 unwonk f;
#X obj 150 117 moses 20;
#X obj 150 140 - 0;
#X obj 88 17 inlet;
#X connect 1 0 5 0;
#X connect 1 1 2 1;
#X connect 2 0 6 0;
#X connect 3 0 4 0;
#X connect 3 1 2 0;
#X connect 4 0 0 0;
#X connect 5 1 7 0;
#X connect 6 0 4 1;
#X connect 6 1 1 0;
#X connect 7 0 8 0;
#X connect 8 0 3 0;
#X connect 9 0 1 0;
#X restore 123 88 pd switch;
#X obj 25 707 * 1023;
#X obj 25 684 clip -1 1;
#X obj 25 729 i;
#X msg 24 642 0;
#X obj 27 664 hsl 128 15 -1 1 0 0 empty empty empty -2 -8 0 10 -262144
-1 -1 6350 1;
#X obj 391 695 * 1023;
#X obj 391 672 clip -1 1;
#X obj 391 717 i;
#X msg 393 628 0;
#X obj 396 650 hsl 128 15 -1 1 0 0 empty empty empty -2 -8 0 10 -262144
-1 -1 6350 1;
#X msg 25 751 c 120 c 4 i \$1;
#X msg 391 739 c 121 c 4 i \$1;
#X obj 208 88 print;
#N canvas 265 268 450 300 tests 0;
#X obj 54 102 route MX;
#X msg 213 128 c 2 c \$1;
#X msg 209 86 2;
#X msg 227 88 10;
#X floatatom 216 107 5 0 0 0 - - -;
#X msg 256 85 25;
#X obj 61 123 unpack f f f f;
#X floatatom 138 154 5 0 0 0 - - -;
#X floatatom 124 175 8 0 0 0 - - -;
#X floatatom 102 196 8 0 0 0 - - -;
#X floatatom 73 224 8 0 0 0 - - -;
#X obj 52 72 fruit/receive Direction;
#X obj 213 149 fruit/send Direction;
#X connect 0 0 6 0;
#X connect 1 0 12 0;
#X connect 2 0 4 0;
#X connect 3 0 4 0;
#X connect 4 0 1 0;
#X connect 5 0 4 0;
#X connect 6 0 10 0;
#X connect 6 1 9 0;
#X connect 6 2 8 0;
#X connect 6 3 7 0;
#X restore 371 14 pd tests;
#X obj 382 189 speedlim 100;
#X obj 86 185 speedlim 100;
#X obj 42 159 speedlim 100;
#X obj 232 180 speedlim 100;
#X obj 207 61 spigot;
#X obj 231 40 tgl 15 0 empty empty empty 17 7 0 10 -262144 -1 -1 0
1;
#N canvas 192 117 450 300 Watchdog 0;
#X obj 136 42 loadbang;
#X msg 136 64 1;
#X obj 137 95 tgl 15 0 empty empty empty 17 7 0 10 -262144 -1 -1 1
1;
#X msg 136 156 W 0;
#X obj 136 125 metro 500;
#X msg 204 86 1000;
#X obj 225 172 bng 15 250 50 0 empty empty empty 17 7 0 10 -262144
-1 -1;
#X msg 218 118 500;
#X obj 119 232 fruit/send2 Lyre;
#X connect 0 0 1 0;
#X connect 1 0 2 0;
#X connect 2 0 4 0;
#X connect 3 0 8 1;
#X connect 4 0 3 0;
#X connect 5 0 4 1;
#X connect 7 0 4 1;
#X restore 484 55 pd Watchdog;
#X obj 76 137 s courantY;
#X obj 9 139 s courantX;
#N canvas 283 87 1073 474 Asservissement 0;
#X obj 167 245 RegulVertical;
#X obj 108 294 tgl 15 0 empty empty empty 17 7 0 10 -262144 -1 -1 0
1;
#X floatatom 268 421 5 0 0 0 - - -;
#X obj 167 221 -;
#X obj 103 88 hsl 128 15 0 1 0 0 empty empty empty -2 -8 0 10 -262144
-1 -1 0 1;
#X floatatom 84 191 5 0 0 0 - - -;
#X floatatom 199 429 5 0 0 0 - - -;
#X obj 193 398 speedlim 50;
#X obj 245 348 s Ypwm;
#X obj 245 293 spigot;
#X obj 306 239 tgl 15 0 empty empty empty 17 7 0 10 -262144 -1 -1 0
1;
#X msg 348 304 0;
#X obj 346 277 sel 0;
#X obj 101 117 clip 0 1;
#X obj 294 164 r RegulYOn;
#X obj 105 49 r ConsignY;
#X obj 184 193 t b f;
#X msg 36 74 0.5;
#X obj 36 48 loadbang;
#X obj 370 178 r RegulYSTOP;
#X obj 305 219 && 1;
#X obj 370 218 == 0;
#X obj 394 330 bng 15 250 50 0 empty empty empty 17 7 0 10 -262144
-1 -1;
#X obj 318 196 t b f;
#X obj 294 192 tgl 15 0 empty empty empty 17 7 0 10 -262144 -1 -1 0
1;
#X obj 370 199 tgl 15 0 empty empty empty 17 7 0 10 -262144 -1 -1 0
1;
#X obj 433 268 tgl 15 0 empty empty empty 17 7 0 10 -262144 -1 -1 0
1;
#X obj 719 322 spigot;
#X obj 805 263 tgl 15 0 empty empty empty 17 7 0 10 -262144 -1 -1 0
1;
#X msg 805 325 0;
#X obj 805 287 sel 0;
#X obj 804 243 && 1;
#X obj 869 242 == 0;
#X obj 893 354 bng 15 250 50 0 empty empty empty 17 7 0 10 -262144
-1 -1;
#X obj 817 220 t b f;
#X obj 793 216 tgl 15 0 empty empty empty 17 7 0 10 -262144 -1 -1 0
1;
#X obj 869 223 tgl 15 0 empty empty empty 17 7 0 10 -262144 -1 -1 0
1;
#X obj 593 56 r ConsignX;
#X obj 189 171 r MesureAngleY;
#X obj 793 363 s Xpwm;
#X obj 658 277 RegulHorizontal;
#X floatatom 651 341 5 0 0 0 - - -;
#X obj 793 188 r RegulXOn;
#X obj 869 202 r RegulXSTOP;
#X floatatom 709 417 5 0 0 0 - - -;
#N canvas 93 178 451 451 lop 0;
#X obj 149 92 inlet;
#X obj 81 98 metro 20;
#X obj 81 74 tgl 15 0 empty empty empty 17 7 0 10 -262144 -1 -1 1 1
;
#X obj 82 162 -;
#X obj 82 189 + 0.5;
#X obj 82 212 fmod 1;
#X obj 82 234 - 0.5;
#X obj 81 135 f;
#X obj 82 305 +;
#X obj 111 305 f;
#X obj 82 367 outlet;
#X obj 82 264 * 0.05;
#X obj 82 331 fmod 1;
#X obj 81 44 loadbang;
#X connect 0 0 7 1;
#X connect 1 0 7 0;
#X connect 2 0 1 0;
#X connect 3 0 4 0;
#X connect 4 0 5 0;
#X connect 5 0 6 0;
#X connect 6 0 11 0;
#X connect 7 0 3 0;
#X connect 8 0 9 0;
#X connect 8 0 12 0;
#X connect 9 0 8 1;
#X connect 9 0 3 1;
#X connect 11 0 8 0;
#X connect 12 0 10 0;
#X connect 13 0 2 0;
#X restore 659 221 pd lop;
#N canvas 90 185 451 451 lop 0;
#X obj 149 92 inlet;
#X obj 81 98 metro 20;
#X obj 81 74 tgl 15 0 empty empty empty 17 7 0 10 -262144 -1 -1 1 1
;
#X obj 82 162 -;
#X obj 82 189 + 0.5;
#X obj 82 212 fmod 1;
#X obj 82 234 - 0.5;
#X obj 81 135 f;
#X obj 82 305 +;
#X obj 111 305 f;
#X obj 82 367 outlet;
#X obj 82 264 * 0.05;
#X obj 82 331 fmod 1;
#X obj 81 44 loadbang;
#X connect 0 0 7 1;
#X connect 1 0 7 0;
#X connect 2 0 1 0;
#X connect 3 0 4 0;
#X connect 4 0 5 0;
#X connect 5 0 6 0;
#X connect 6 0 11 0;
#X connect 7 0 3 0;
#X connect 8 0 9 0;
#X connect 8 0 12 0;
#X connect 9 0 8 1;
#X connect 9 0 3 1;
#X connect 11 0 8 0;
#X connect 12 0 10 0;
#X connect 13 0 2 0;
#X restore 659 245 pd lop;
#X floatatom 612 308 5 0 0 0 - - -;
#X obj 658 197 clip 0 1;
#X obj 212 119 maxlib/scale 0 1 310 190;
#X obj 104 143 maxlib/scale 0 1 270 90;
#X obj 591 111 * 400;
#X obj 588 154 s Lyre-MotX-ramp-params;
#X msg 589 133 dest \$1;
#X obj 720 84 == 0;
#X obj 720 65 tgl 15 0 empty empty empty 17 7 0 10 -262144 -1 -1 0
1;
#X obj 720 44 r RegulXSTOP;
#X obj 593 84 spigot 1;
#X floatatom 525 187 5 0 0 0 - - -;
#X connect 0 0 9 0;
#X connect 3 0 0 0;
#X connect 4 0 13 0;
#X connect 7 0 6 0;
#X connect 9 0 8 0;
#X connect 10 0 9 1;
#X connect 10 0 12 0;
#X connect 11 0 8 0;
#X connect 12 0 11 0;
#X connect 12 0 22 0;
#X connect 13 0 50 0;
#X connect 14 0 24 0;
#X connect 15 0 4 0;
#X connect 16 0 3 0;
#X connect 16 1 3 1;
#X connect 17 0 4 0;
#X connect 18 0 17 0;
#X connect 19 0 25 0;
#X connect 20 0 10 0;
#X connect 21 0 23 0;
#X connect 23 0 20 0;
#X connect 23 1 20 1;
#X connect 24 0 20 0;
#X connect 25 0 21 0;
#X connect 28 0 30 0;
#X connect 29 0 39 0;
#X connect 30 0 29 0;
#X connect 30 0 33 0;
#X connect 31 0 28 0;
#X connect 32 0 34 0;
#X connect 34 0 31 0;
#X connect 34 1 31 1;
#X connect 35 0 31 0;
#X connect 36 0 32 0;
#X connect 38 0 16 0;
#X connect 38 0 7 0;
#X connect 40 0 27 0;
#X connect 42 0 35 0;
#X connect 43 0 36 0;
#X connect 45 0 46 0;
#X connect 46 0 40 0;
#X connect 48 0 45 0;
#X connect 50 0 3 0;
#X connect 51 0 53 0;
#X connect 51 0 58 0;
#X connect 53 0 52 0;
#X connect 54 0 57 1;
#X connect 55 0 54 0;
#X connect 56 0 55 0;
#X connect 57 0 51 0;
#X restore 481 31 pd Asservissement;
#X obj 42 108 route 0 1 3 4;
#X text 647 620 plat = -100 \, haut=-160 \, bas=-30;
#X obj 439 624 r Ypwm;
#X obj 91 629 r Xpwm;
#X text 620 658 plat = 260 \, haut=185 \, bas=317;
#X obj 297 50 spigot;
#X obj 349 24 tgl 15 0 empty empty empty 17 7 0 10 -262144 -1 -1 0
1;
#X msg 609 93 c 2 c \$1;
#X obj 609 26 route present;
#X obj 608 47 sel 1;
#X floatatom 714 75 5 0 0 0 - - -;
#X obj 8 305 dcmotor/motor Lyre 120 MotX;
#X obj 9 463 dcmotor/motor Lyre 121 MotY;
#X obj 609 5 fruit/receive Lyre;
#X obj 609 117 fruit/send2 Lyre;
#X obj 25 775 fruit/send2 Lyre;
#X obj 391 763 fruit/send2 Lyre;
#X obj 35 61 fruit/receive Lyre;
#X text 564 700 3350-9500;
#X floatatom 561 344 5 0 0 0 - - -;
#X floatatom 120 698 5 0 0 0 - - -;
#X obj 257 97 unpack f f f;
#X floatatom 288 123 5 0 0 0 - - -;
#X floatatom 221 125 5 0 0 0 - - -;
#X floatatom 326 120 5 0 0 0 - - -;
#X obj 367 137 == 1;
#X msg 642 70 1;
#X obj 267 16 route M s;
#X obj 298 69 print switch;
#X obj 395 44 route 0;
#X obj 389 75 tgl 15 0 empty empty empty 17 7 0 10 -262144 -1 -1 0
1;
#N canvas 4 75 514 629 mesureAngleY 0;
#X obj 68 74 inlet X;
#X obj 351 72 inlet Z;
#X obj 185 298 atan2;
#X obj 205 244 t b f;
#X floatatom 250 320 5 0 0 0 - - -;
#X obj 185 278 f;
#X obj 185 346 / 3.14159;
#X obj 185 367 * 180;
#X floatatom 206 407 5 0 0 0 - - -;
#X floatatom 256 502 5 0 0 0 - - -;
#X floatatom 324 422 5 0 0 0 - - -;
#X obj 163 540 s MesureAngleY;
#X obj 319 336 s MesureAngleX;
#X obj 185 478 fmod 360;
#N canvas 233 510 450 300 lop 0;
#X obj 113 62 inlet;
#X obj 111 121 +;
#X obj 110 146 outlet;
#X obj 112 94 * 0.02;
#X obj 138 122 * 0.98;
#X obj 191 69 * -1;
#X obj 191 90 + 1;
#X obj 190 16 inlet;
#X obj 191 36 clip 0 1;
#X connect 0 0 3 0;
#X connect 1 0 2 0;
#X connect 1 0 4 0;
#X connect 3 0 1 0;
#X connect 4 0 1 1;
#X connect 5 0 6 0;
#X connect 6 0 4 1;
#X connect 7 0 8 0;
#X connect 8 0 5 0;
#X connect 8 0 3 1;
#X restore 141 217 pd lop;
#N canvas 912 162 450 300 lop 0;
#X obj 113 62 inlet;
#X obj 111 121 +;
#X obj 110 146 outlet;
#X obj 112 94 * 0.02;
#X obj 138 122 * 0.98;
#X obj 191 69 * -1;
#X obj 191 90 + 1;
#X obj 190 16 inlet;
#X obj 191 36 clip 0 1;
#X connect 0 0 3 0;
#X connect 1 0 2 0;
#X connect 1 0 4 0;
#X connect 3 0 1 0;
#X connect 4 0 1 1;
#X connect 5 0 6 0;
#X connect 6 0 4 1;
#X connect 7 0 8 0;
#X connect 8 0 5 0;
#X connect 8 0 3 1;
#X restore 205 218 pd lop;
#X floatatom 191 148 5 0 0 0 - - -;
#X obj 348 108 - 6100;
#X obj 67 98 - 5500;
#X obj 185 435 + 360;
#X msg 194 127 0.5;
#X obj 278 539 outlet;
#X obj 193 102 loadbang;
#X connect 0 0 18 0;
#X connect 1 0 17 0;
#X connect 2 0 4 0;
#X connect 2 0 6 0;
#X connect 3 0 5 0;
#X connect 3 1 2 1;
#X connect 5 0 2 0;
#X connect 6 0 7 0;
#X connect 7 0 8 0;
#X connect 7 0 19 0;
#X connect 13 0 11 0;
#X connect 13 0 9 0;
#X connect 13 0 21 0;
#X connect 14 0 5 0;
#X connect 15 0 3 0;
#X connect 16 0 14 1;
#X connect 16 0 15 1;
#X connect 17 0 14 0;
#X connect 18 0 15 0;
#X connect 19 0 13 0;
#X connect 20 0 16 0;
#X connect 22 0 20 0;
#X restore 170 157 pd mesureAngleY;
#X floatatom 176 180 5 0 0 0 - - -;
#X floatatom 600 253 8 0 0 0 - - -;
#X obj 426 103 change;
#X obj 426 125 s XstopSwitch;
#X obj 189 638 r XstopSwitch;
#X obj 190 660 sel 1;
#X obj 192 683 spigot;
#X obj 238 667 tgl 15 0 empty empty empty 17 7 0 10 -262144 -1 -1 0
1;
#X obj 35 5 fruit/fruit 1 Lyre 1 Lyre8X2A;
#X obj 600 181 fruit/receive Lyre;
#X obj 600 202 route MP;
#X floatatom 658 251 8 0 0 0 - - -;
#X msg 610 69 10;
#X msg 160 745 SAVE;
#X obj 600 223 unpack f f f, f 20;
#X floatatom 717 250 8 0 0 0 - - -;
#X obj 650 460 r ConsignX;
#X floatatom 607 511 5 0 0 0 - - -;
#X obj 651 579 s Lyre-MotX-ramp-params;
#X msg 651 557 dest \$1;
#X msg 828 551 dest \$1;
#X obj 781 393 r ConsignY;
#X obj 828 573 s Lyre-MotY-ramp-params;
#X obj 707 510 * 2850;
#X obj 792 176 ggee/shell;
#X msg 801 156 nohup omxplayer --loop ~/Videos/recmydesktop-9.mp4;
#X obj 426 79 != 0;
#N canvas 72 87 450 331 HOMING 0;
#X obj 260 176 s Ypwm;
#X msg 260 144 -0.5;
#X obj 213 71 r DO_HOME;
#X obj 136 139 r XstopSwitch;
#X obj 136 162 sel 1;
#X obj 136 185 spigot;
#X obj 184 169 tgl 15 0 empty empty empty 17 7 0 10 -262144 -1 -1 0
1;
#X msg 90 235 -0.5;
#X obj 90 267 s Xpwm;
#X msg 136 206 0;
#X msg 90 132 1;
#X msg 232 266 homed 1;
#X obj 232 287 s Lyre-MotX-params;
#X connect 1 0 0 0;
#X connect 2 0 1 0;
#X connect 2 0 10 0;
#X connect 3 0 4 0;
#X connect 4 0 5 0;
#X connect 5 0 9 0;
#X connect 5 0 11 0;
#X connect 6 0 5 1;
#X connect 7 0 8 0;
#X connect 9 0 5 1;
#X connect 9 0 8 0;
#X connect 10 0 5 1;
#X connect 10 0 7 0;
#X connect 11 0 12 0;
#X restore 918 367 pd HOMING;
#X obj 944 300 s DO_HOME;
#X obj 942 271 bng 15 250 50 0 empty empty empty 17 7 0 10 -262144
-1 -1;
#X obj 717 274 change -1;
#X obj 717 295 s HOMED;
#X obj 898 492 + 515;
#X obj 781 454 / 90;
#X obj 781 475 * 764;
#X obj 781 498 + 515;
#X msg 870 421 0;
#X obj 650 530 * 2760;
#X floatatom 774 537 5 0 0 0 - - -;
#X obj 755 437 bng 15 250 50 0 empty empty empty 17 7 0 10 -262144
-1 -1;
#X msg 750 389 100;
#X floatatom 717 429 5 0 0 0 - - -;
#X floatatom 589 418 5 0 0 0 - - -;
#X floatatom 724 378 5 0 0 0 - - -;
#X obj 650 484 / -360;
#X obj 781 423 clip -45 100;
#X connect 0 0 34 0;
#X connect 1 0 7 0;
#X connect 2 0 6 0;
#X connect 3 0 5 0;
#X connect 4 0 8 0;
#X connect 10 0 12 0;
#X connect 11 0 10 0;
#X connect 12 0 20 0;
#X connect 13 0 14 0;
#X connect 14 0 11 0;
#X connect 15 0 17 0;
#X connect 16 0 15 0;
#X connect 17 0 21 0;
#X connect 18 0 19 0;
#X connect 19 0 16 0;
#X connect 20 0 49 0;
#X connect 21 0 50 0;
#X connect 24 0 4 0;
#X connect 25 0 2 0;
#X connect 26 0 1 0;
#X connect 27 0 3 0;
#X connect 28 0 22 0;
#X connect 29 0 28 1;
#X connect 34 0 26 0;
#X connect 34 0 32 0;
#X connect 34 1 25 0;
#X connect 34 1 31 0;
#X connect 34 2 27 0;
#X connect 34 2 65 0;
#X connect 34 3 24 0;
#X connect 34 3 65 1;
#X connect 36 0 19 0;
#X connect 37 0 14 0;
#X connect 37 0 54 0;
#X connect 39 0 62 0;
#X connect 40 0 39 1;
#X connect 41 0 48 0;
#X connect 42 0 43 0;
#X connect 43 0 78 0;
#X connect 47 0 42 0;
#X connect 51 0 28 0;
#X connect 51 0 0 0;
#X connect 51 0 61 0;
#X connect 55 0 57 0;
#X connect 55 1 56 0;
#X connect 55 2 58 0;
#X connect 55 2 59 0;
#X connect 60 0 41 0;
#X connect 61 0 55 0;
#X connect 61 1 39 0;
#X connect 61 1 63 0;
#X connect 63 0 64 0;
#X connect 63 0 92 0;
#X connect 65 0 66 0;
#X connect 68 0 69 0;
#X connect 70 0 71 0;
#X connect 71 0 72 0;
#X connect 72 0 13 0;
#X connect 73 0 72 1;
#X connect 75 0 76 0;
#X connect 76 0 80 0;
#X connect 78 0 41 0;
#X connect 79 0 49 1;
#X connect 80 0 67 0;
#X connect 80 1 77 0;
#X connect 80 2 81 0;
#X connect 81 0 96 0;
#X connect 82 0 110 0;
#X connect 85 0 84 0;
#X connect 86 0 88 0;
#X connect 87 0 107 0;
#X connect 87 0 111 0;
#X connect 91 0 90 0;
#X connect 92 0 68 0;
#X connect 95 0 94 0;
#X connect 96 0 97 0;
#X connect 99 0 100 0;
#X connect 100 0 101 0;
#X connect 101 0 104 0;
#X connect 101 0 86 0;
#X connect 102 0 99 0;
#X connect 103 0 85 0;
#X connect 103 0 83 0;
#X connect 105 0 99 0;
#X connect 106 0 111 0;
#X connect 108 0 110 0;
#X connect 110 0 103 0;
#X connect 111 0 99 0;
#X restore 42 99 pd LYRE;
#X obj 42 199 hsl 150 20 0 1 0 0 ConsignY ConsignY-rcv ConsignY 10
10 0 14 -4034 -1 -1 0 1;
#N canvas 800 112 561 382 image 0;
#X obj 83 346 system;
#X obj 24 115 getdir;
#X obj 24 92 bng 15 250 50 0 empty empty empty 17 7 0 10 -262144 -1
-1;
#X obj 83 294 list trim;
#X msg 14 210 -fs;
#X msg 14 252 -fS;
#X msg 24 148 file:\$1/img/moon.jpg -fs;
#X msg 103 319 xset -display :0.0 dpms force on;
#X obj 29 327 print;
#X obj 231 184 list prepend echo "DISPLAY=:0.0 && gqview -r;
#X obj 231 213 list append " | at now;
#X obj 83 266 list prepend DISPLAY=:0.0 && gqview -r;
#X msg 209 13 file:~/Desktop/images/mires/grid3.png -fs;
#X msg 210 36 file:~/Desktop/images/mires/mask2.png -fs;
#X msg 210 58 file:~/Desktop/images/mires/mask3.png -fs;
#X msg 209 81 file:~/Desktop/images/mires/test1.png -fs;
#X msg 210 106 file:~/Desktop/images/mires/multi2.png -fs;
#X msg 209 131 file:~/Desktop/images/mires/multi3.png -fs;
#X msg 209 156 file:~/Desktop/images/mires/multi-blur1.png -fs;
#X connect 1 0 6 0;
#X connect 2 0 1 0;
#X connect 3 0 0 0;
#X connect 3 0 8 0;
#X connect 4 0 11 0;
#X connect 5 0 11 0;
#X connect 6 0 11 0;
#X connect 7 0 0 0;
#X connect 9 0 10 0;
#X connect 11 0 3 0;
#X connect 12 0 11 0;
#X connect 13 0 11 0;
#X connect 14 0 11 0;
#X connect 15 0 11 0;
#X connect 16 0 11 0;
#X connect 17 0 11 0;
#X connect 18 0 11 0;
#X restore 931 215 pd image;
#X msg 916 116 500 1 1;
#X obj 595 131 tgl 60 0 RegulXSTOP empty XSTOP 3 30 0 19 -258113 -1
-1 0 1;
#X obj 195 312 PdClient \$0 Lyre;
#N canvas 505 417 580 426 NET 0;
#X obj 207 14 r MesureAngleY;
#X obj 68 13 r MesureAngleX;
#X obj 91 115 list prepend TALK _all_ Lyre;
#X obj 91 138 list trim;
#X msg 68 66 X \$1;
#X msg 207 62 Y \$1;
#X obj 285 76 route Lyre;
#X obj 310 133 s ConsignY;
#X obj 265 162 s ConsignX;
#X msg 209 218 set \$1;
#X obj 209 240 s ConsignX-rcv;
#X obj 209 195 r ConsignX;
#X msg 313 218 set \$1;
#X obj 313 195 r ConsignY;
#X obj 313 240 s ConsignY-rcv;
#X obj 91 165 s \$0-toserver;
#X obj 285 52 r \$0-fromserver;
#X floatatom 200 166 5 0 0 0 - - -;
#X obj 285 101 route setX setY;
#X obj 68 41 speedlim 80;
#X obj 207 34 speedlim 80;
#X connect 0 0 20 0;
#X connect 1 0 19 0;
#X connect 2 0 3 0;
#X connect 3 0 15 0;
#X connect 4 0 2 0;
#X connect 5 0 2 0;
#X connect 6 0 18 0;
#X connect 9 0 10 0;
#X connect 11 0 9 0;
#X connect 12 0 14 0;
#X connect 13 0 12 0;
#X connect 16 0 6 0;
#X connect 18 0 8 0;
#X connect 18 0 17 0;
#X connect 18 1 7 0;
#X connect 19 0 4 0;
#X connect 20 0 5 0;
#X restore 121 326 pd NET;
#X obj 595 196 tgl 60 0 RegulYSTOP empty YSTOP 3 30 0 19 -258113 -1
-1 0 1;
#X obj 43 169 hsl 150 20 0 1 0 0 ConsignX ConsignX-rcv ConsignX 10
10 0 14 -4034 -1 -1 0 0;
#X obj 35 259 screenRemote;
#N canvas 572 220 724 575 testScreen 0;
#X obj 56 367 list prepend TALK _all_ LyreScreen;
#X obj 56 417 s \$0-toserver;
#X obj 56 390 list trim;
#X obj 164 50 hsl 128 15 0 360 0 0 empty empty empty -2 -8 0 10 -262144
-1 -1 0 1;
#X obj 60 28 hsl 128 15 350 1100 1 0 empty empty empty -2 -8 0 10 -262144
-1 -1 0 1;
#X obj 300 48 hsl 128 15 0 360 0 0 empty empty empty -2 -8 0 10 -262144
-1 -1 0 1;
#X msg 60 57 z \$1;
#X msg 161 69 x \$1;
#X msg 297 68 y \$1;
#X msg 263 126 auto \$1;
#X obj 299 102 tgl 15 0 empty empty empty 17 7 0 10 -262144 -1 -1 0
1;
#X obj 339 110 hsl 128 15 0 360 0 0 empty empty empty -2 -8 0 10 -262144
-1 -1 0 1;
#X msg 337 129 autox \$1;
#X msg 355 208 img img/metaluH2r.jpg;
#X msg 366 184 img img/metaluH1r.jpg;
#X msg 363 233 img img/metaluJr.jpg;
#X msg 348 317 col1 1 1 1 \$1;
#X msg 447 321 col2 1 1 1 \$1;
#X msg 541 321 col3 1 1 1 \$1;
#X obj 343 273 hsl 128 15 0 1 0 0 empty empty empty -2 -8 0 10 -262144
-1 -1 0 1;
#X obj 436 296 hsl 128 15 0 1 0 0 empty empty empty -2 -8 0 10 -262144
-1 -1 0 1;
#X obj 515 272 hsl 128 15 0 1 0 0 empty empty empty -2 -8 0 10 -262144
-1 -1 0 1;
#X obj 421 362 t a;
#X msg 393 160 img img/metaluH1k2.jpg;
#X obj 506 69 / 5;
#X obj 489 47 hradio 15 1 0 5 empty empty empty 0 -8 0 10 -262144 -1
-1 0;
#X obj 506 96 * 360;
#X msg 361 423 logoy \$1;
#X floatatom 367 399 5 0 0 0 - - -;
#X floatatom 453 400 5 0 0 0 - - -;
#X msg 447 424 logosize \$1;
#X floatatom 272 405 5 0 0 0 - - -;
#X msg 266 429 logoz \$1;
#X msg 534 420 logoalpha \$1;
#X obj 534 381 hsl 128 15 0 1 0 0 empty empty empty -2 -8 0 10 -262144
-1 -1 0 1;
#X obj 542 187 hsl 128 15 0 1 0 0 empty empty empty -2 -8 0 10 -262144
-1 -1 0 1;
#X msg 539 213 fade \$1;
#X floatatom 631 413 5 0 0 0 - - -;
#X floatatom 244 478 5 0 0 0 - - -;
#X msg 283 543 logopos \$1 \$2;
#X msg 244 498 1 \$1;
#X floatatom 301 480 5 0 0 0 - - -;
#X floatatom 353 475 5 0 0 0 - - -;
#X floatatom 419 485 5 0 0 0 - - -;
#X floatatom 495 483 5 0 0 0 - - -;
#X msg 302 505 2 \$1;
#X msg 353 495 3 \$1;
#X msg 420 510 4 \$1;
#X msg 496 508 5 \$1;
#X msg 420 461 -109;
#X msg 497 455 207;
#X msg 354 454 180;
#X msg 297 454 -77;
#X msg 244 455 -38;
#X obj 503 117 hsl 128 15 -180 180 0 0 empty empty empty -2 -8 0 10
-262144 -1 -1 0 1;
#X msg 501 136 autoy \$1;
#X connect 0 0 2 0;
#X connect 2 0 1 0;
#X connect 3 0 7 0;
#X connect 4 0 6 0;
#X connect 5 0 8 0;
#X connect 6 0 0 0;
#X connect 7 0 0 0;
#X connect 8 0 0 0;
#X connect 9 0 0 0;
#X connect 10 0 9 0;
#X connect 11 0 12 0;
#X connect 12 0 0 0;
#X connect 13 0 0 0;
#X connect 14 0 0 0;
#X connect 15 0 0 0;
#X connect 16 0 22 0;
#X connect 17 0 22 0;
#X connect 18 0 22 0;
#X connect 19 0 16 0;
#X connect 20 0 17 0;
#X connect 21 0 18 0;
#X connect 22 0 0 0;
#X connect 23 0 0 0;
#X connect 24 0 26 0;
#X connect 25 0 24 0;
#X connect 26 0 11 0;
#X connect 27 0 0 0;
#X connect 28 0 27 0;
#X connect 29 0 30 0;
#X connect 30 0 0 0;
#X connect 31 0 32 0;
#X connect 32 0 0 0;
#X connect 33 0 0 0;
#X connect 34 0 33 0;
#X connect 34 0 37 0;
#X connect 35 0 36 0;
#X connect 36 0 0 0;
#X connect 38 0 40 0;
#X connect 39 0 0 0;
#X connect 40 0 39 0;
#X connect 41 0 45 0;
#X connect 42 0 46 0;
#X connect 43 0 47 0;
#X connect 44 0 48 0;
#X connect 45 0 39 0;
#X connect 46 0 39 0;
#X connect 47 0 39 0;
#X connect 48 0 39 0;
#X connect 49 0 43 0;
#X connect 50 0 44 0;
#X connect 51 0 42 0;
#X connect 52 0 41 0;
#X connect 53 0 38 0;
#X connect 54 0 55 0;
#X connect 55 0 0 0;
#X restore 123 266 pd testScreen;
#X obj 35 280 tgl 15 0 empty empty empty 17 7 0 10 -4034 -1 -1 0 1
;
#X obj 35 238 bng 15 250 50 0 empty empty empty 17 7 0 10 -262144 -1
-1;
#X obj 26 126 hradio 15 1 0 5 empty empty empty 0 -8 0 10 -262144 -1
-1 0;
#X floatatom 88 145 5 0 0 0 - - -;
#X msg 129 131 0.5;
#X obj 43 148 / 5;
#X obj 41 -3 declare -stdpath Fraise;
#X obj 41 20 pied/pied 0 12346;
#X msg 8 210 0.5;
#X obj 52 406 ggee/shell;
#X msg 52 383 nohup omxplayer --loop ~/Videos/recmydesktop-9.mp4;
#X obj 315 60 tgl 50 0 empty empty auto 2 25 0 20 -257985 -1 -1 0 1
;
#N canvas 186 148 450 300 auto 0;
#X obj 36 17 inlet;
#X obj 36 58 metro 1000;
#X obj 36 79 t b b, f 25;
#X obj 38 282 s ConsignX-rcv;
#X obj 184 279 s ConsignY-rcv;
#X obj 36 121 / 1000;
#X obj 36 142 - 1;
#X floatatom 56 262 5 0 0 0 - - -;
#X obj 37 229 line 0 50;
#X obj 36 101 random 2000;
#X obj 37 185 + 0.5;
#X msg 37 208 \$1 6000;
#X obj 126 105 sel 0;
#X msg 126 126 stop;
#X obj 183 135 / 1000;
#X obj 183 156 - 1;
#X obj 184 243 line 0 50;
#X obj 183 115 random 2000;
#X msg 184 222 \$1 6000;
#X obj 184 199 + 0.39;
#X obj 37 163 * 0.08;
#X obj 184 177 * 0.2;
#X connect 0 0 1 0;
#X connect 0 0 12 0;
#X connect 1 0 2 0;
#X connect 2 0 9 0;
#X connect 2 1 17 0;
#X connect 5 0 6 0;
#X connect 6 0 20 0;
#X connect 8 0 7 0;
#X connect 8 0 3 0;
#X connect 9 0 5 0;
#X connect 10 0 11 0;
#X connect 11 0 8 0;
#X connect 12 0 13 0;
#X connect 13 0 8 0;
#X connect 13 0 16 0;
#X connect 14 0 15 0;
#X connect 15 0 21 0;
#X connect 16 0 4 0;
#X connect 17 0 14 0;
#X connect 18 0 16 0;
#X connect 19 0 18 0;
#X connect 20 0 10 0;
#X connect 21 0 19 0;
#X restore 315 115 pd auto;
#X msg 219 171 0.39;
#N canvas 1992 681 670 471 OSC 1;
#X obj 29 13 netreceive -u -b 20123;
#X obj 29 34 oscparse;
#X obj 29 116 s fromOSC;
#X obj 33 150 r fromOSC;
#X obj 287 244 s DO_HOME;
#X obj 40 350 s ConsignX;
#X obj 202 359 s ConsignY;
#X floatatom 108 373 5 0 0 0 - - -;
#X obj 29 63 list trim;
#X obj 283 144 bng 15 250 50 0 empty empty empty 17 7 0 10 -262144
-1 -1;
#X floatatom 16 290 5 0 0 0 - - -;
#X floatatom 164 403 5 0 0 0 - - -;
#X obj 356 247 r HOMED;
#X obj 150 120 print fromOSC;
#X obj 29 88 route fw;
#N canvas 140 229 711 492 line1 0;
#X obj 56 18 inlet;
#X obj 56 223 outlet;
#X obj 56 82 pack f f;
#X obj 56 105 line;
#X obj 226 17 r fromOSC;
#X obj 226 45 route line;
#X connect 0 0 2 0;
#X connect 2 0 3 0;
#X connect 3 0 1 0;
#X connect 4 0 5 0;
#X connect 5 0 2 1;
#X restore 19 210 pd line1;
#N canvas 98 237 711 492 line1 0;
#X obj 56 18 inlet;
#X obj 56 223 outlet;
#X obj 56 82 pack f f;
#X obj 56 105 line;
#X obj 226 17 r fromOSC;
#X obj 226 45 route line;
#X connect 0 0 2 0;
#X connect 2 0 3 0;
#X connect 3 0 1 0;
#X connect 4 0 5 0;
#X connect 5 0 2 1;
#X restore 69 236 pd line1;
#X obj 143 205 t a b;
#X obj 143 232 pack f f f;
#X msg 185 206 0;
#X obj 145 259 unpack f f f, f 17;
#X obj 145 290 pack f f;
#X obj 202 291 pack f f;
#X obj 343 339 print;
#X obj 145 313 line;
#X obj 202 318 line;
#X obj 32 173 route pan tilt pan_tilt home stop, f 41;
#X msg 248 208 stop;
#X msg 290 294;
#X obj 425 123 netreceive 20124;
#X obj 425 99 spigot;
#X obj 518 146 != 0;
#X floatatom 532 123 5 0 0 0 - - -;
#X obj 425 26 r toClients;
#X obj 425 49 list prepend send;
#X obj 425 72 list trim;
#X connect 0 0 1 0;
#X connect 1 0 8 0;
#X connect 3 0 26 0;
#X connect 8 0 14 0;
#X connect 9 0 4 0;
#X connect 10 0 5 0;
#X connect 14 0 2 0;
#X connect 14 1 2 0;
#X connect 17 0 18 0;
#X connect 17 1 19 0;
#X connect 18 0 20 0;
#X connect 19 0 18 2;
#X connect 20 0 21 0;
#X connect 20 1 22 0;
#X connect 20 2 21 1;
#X connect 20 2 22 1;
#X connect 21 0 24 0;
#X connect 22 0 25 0;
#X connect 24 0 5 0;
#X connect 25 0 6 0;
#X connect 26 2 17 0;
#X connect 26 3 4 0;
#X connect 26 4 27 0;
#X connect 27 0 24 0;
#X connect 27 0 25 0;
#X connect 29 1 31 0;
#X connect 29 1 32 0;
#X connect 30 0 29 0;
#X connect 31 0 30 1;
#X connect 33 0 34 0;
#X connect 34 0 35 0;
#X connect 35 0 30 0;
#X restore 248 30 pd OSC;
#X obj 359 200 r HOMED;
#X obj 359 228 tgl 30 0 empty empty empty 17 7 0 10 -260097 -1 -1 0
1;
#X obj 364 304 pof_main;
#N canvas 0 626 549 300 test_open_stage_remote 0;
#X obj 195 197 netsend -u -b;
#X msg 50 115 connect localhost 8080;
#X floatatom 195 225 5 0 0 0 - - -;
#X msg 132 44;
#X obj 199 48 hsl 128 15 0 8 0 0 empty empty empty -2 -8 0 10 -262144
-1 -1 0 1;
#X obj 195 149 list prepend send;
#X obj 195 173 list trim;
#X msg 196 87 list saturation \$1;
#X obj 196 121 oscformat SET;
#X obj 338 48 hsl 128 15 0 8 0 0 empty empty empty -2 -8 0 10 -262144
-1 -1 0 1;
#X obj 49 89 loadbang;
#X obj 335 121 oscformat saturation;
#X connect 0 0 2 0;
#X connect 1 0 0 0;
#X connect 4 0 7 0;
#X connect 5 0 6 0;
#X connect 6 0 0 0;
#X connect 7 0 8 0;
#X connect 8 0 5 0;
#X connect 9 0 11 0;
#X connect 10 0 1 0;
#X connect 11 0 5 0;
#X restore 444 408 pd test_open_stage_remote;
#X connect 12 0 22 0;
#X connect 22 0 13 0;
#X connect 26 0 13 0;
#X connect 32 0 34 0;
#X connect 35 0 32 0;
#X connect 36 0 39 0;
#X connect 38 0 31 0;
#X connect 39 0 31 0;
#X connect 39 0 37 0;
#X connect 42 0 24 0;
#X connect 44 0 43 0;
#X connect 45 0 46 0;
#X connect 47 0 24 0;
#X connect 49 0 50 0;
#X coords 0 0 0.00203252 0.00161812 280 45 0;
