#N canvas 238 313 929 725 10;
#X declare -lib pof;
#X obj 56 91 declare -lib pof;
#X obj 15 167 pofhead;
#X obj 57 292 poffilm filmtex;
#X msg 63 188 load \$1;
#X msg 95 252 play \$1;
#X obj 95 231 tgl 15 0 empty empty empty 17 7 0 10 -262144 -1 -1 0
1;
#X msg 161 245 speed \$1;
#X msg 222 195 1;
#X msg 225 247 goto \$1;
#X floatatom 225 226 5 0 0 0 - - -;
#X msg 161 197 0.5;
#X msg 191 195 0;
#X floatatom 161 223 5 0 0 0 - - -;
#X obj 15 218 t a a;
#X obj 603 191 pofwin;
#X msg 603 166 window 1360 768 1 \, cursor 0;
#X obj 15 433 poftexture filmtex;
#X obj 15 485 pofquad 1360 768;
#X obj 381 295 t b f;
#X msg 327 348 corner 0 \$1 \$2;
#X obj 511 293 t b f;
#X msg 463 346 corner 1 \$1 \$2;
#X obj 327 326 pack -200 -150;
#X obj 463 324 pack 200 -150;
#X obj 373 432 t b f;
#X obj 509 430 t b f;
#X msg 325 485 corner 3 \$1 \$2;
#X msg 461 483 corner 2 \$1 \$2;
#X obj 461 461 pack 200 150;
#X obj 325 463 pack -200 150;
#X obj 416 426 t a;
#X obj 381 278 nbx 5 14 -1e+37 1e+37 0 1 empty empty empty 0 -8 0 10
-262144 -1 -1 -384 256;
#X obj 322 277 nbx 5 14 -1e+37 1e+37 0 1 empty empty empty 0 -8 0 10
-262144 -1 -1 -496.64 256;
#X obj 511 276 nbx 5 14 -1e+37 1e+37 0 1 empty empty empty 0 -8 0 10
-262144 -1 -1 -337.92 256;
#X obj 452 275 nbx 5 14 -1e+37 1e+37 0 1 empty empty empty 0 -8 0 10
-262144 -1 -1 512 256;
#X obj 373 408 nbx 5 14 -1e+37 1e+37 0 1 empty empty empty 0 -8 0 10
-262144 -1 -1 384 256;
#X obj 314 407 nbx 5 14 -1e+37 1e+37 0 1 empty empty empty 0 -8 0 10
-262144 -1 -1 512 256;
#X obj 509 406 nbx 5 14 -1e+37 1e+37 0 1 empty empty empty 0 -8 0 10
-262144 -1 -1 384 256;
#X obj 450 405 nbx 5 14 -1e+37 1e+37 0 1 empty empty empty 0 -8 0 10
-262144 -1 -1 -512 256;
#X obj 63 168 makefilename films/%02d.mov;
#X msg 63 134 1;
#X msg 93 134 2;
#X obj 89 350 unpack f f f;
#X floatatom 89 372 5 0 0 3 width - -;
#X floatatom 129 372 5 0 0 3 height - -;
#X floatatom 183 372 5 0 0 3 nb_frames - -;
#X obj 89 319 route size frame;
#X floatatom 210 341 5 0 0 3 current_frame - -;
#X msg 123 133 3;
#X obj 413 543 metro 1000;
#X obj 414 616 t b b, f 8;
#X obj 414 637 realtime;
#X floatatom 414 658 5 0 0 0 - - -;
#X obj 427 512 tgl 15 0 empty empty empty 17 7 0 10 -262144 -1 -1 0
1;
#X obj 234 564 f;
#X msg 234 521 1;
#X obj 234 542 +;
#X floatatom 210 590 5 0 0 0 - - -;
#X msg 152 133 4;
#X msg 182 132 5;
#X obj 229 480 change;
#X obj 251 591 f;
#X floatatom 251 612 5 0 0 0 - - -;
#X obj 371 578 t b b;
#X msg 368 602 0;
#X msg 668 125 framerate \$1;
#X msg 668 99 8;
#X msg 698 100 25;
#X msg 729 100 60;
#X text 748 124 Set framerate.;
#X obj 307 540 t f f;
#X obj 308 519 f;
#X obj 318 564 -;
#X floatatom 314 605 5 0 0 0 - - -;
#X msg 615 102 30;
#X msg 210 132 6;
#X msg 238 133 7;
#X msg 268 134 8;
#X msg 296 134 9;
#X msg 591 145 window 1024 768 1 \, cursor 0;
#X msg 711 203 window 400 300 0 \, cursor 1;
#X obj 330 152 r fromOSC;
#X obj 330 175 route 1X 1Y 2X 2Y, f 37;
#X obj 330 199 clip -1 1;
#X obj 330 220 * 512;
#X obj 509 219 clip -1 1;
#X obj 450 199 clip -1 1;
#X obj 450 220 * 512;
#X obj 389 219 clip -1 1;
#X obj 570 292 r fromOSC;
#X obj 570 339 clip -1 1;
#X obj 570 360 * 512;
#X obj 749 359 clip -1 1;
#X obj 690 339 clip -1 1;
#X obj 690 360 * 512;
#X obj 629 359 clip -1 1;
#X obj 570 315 route 4X 4Y 3X 3Y, f 37;
#X obj 654 530 s fromOSC;
#X obj 389 197 - 0;
#X obj 509 199 - 0;
#X obj 629 337 - 0;
#X obj 749 339 - 0;
#X msg 606 494 1X -1 \, 1Y 1 \, 2X 1 \, 2Y 1 \, 3X 1 \, 3Y -1 \, 4X
-1 \, 4Y -1;
#X obj 389 240 * -384;
#X obj 509 240 * -384;
#X obj 629 380 * -384;
#X obj 749 380 * -384;
#X obj 603 236 unpack f f;
#X floatatom 603 257 5 0 0 0 - - -;
#X floatatom 659 257 5 0 0 0 - - -;
#X obj 603 215 route window;
#X obj 697 255 sel 768;
#X obj 737 274 b;
#X obj 737 295 del 500;
#X obj 419 97 r fromOSC;
#X obj 419 118 route quad;
#X obj 419 139 unpack f f f f f f f f;
#X obj 321 91 r fromOSC;
#X obj 321 112 route play;
#X obj 206 16 r fromOSC;
#X obj 206 78 route 1 2 3;
#X obj 15 405 pofcolor 1 1 1 1;
#X floatatom 52 340 5 0 0 0 - - -;
#X obj 205 39 route film master rgb_1;
#X obj 295 62 unpack f f f;
#N canvas 229 139 914 496 shader 0;
#X obj 67 22 inlet;
#X obj 67 447 outlet;
#X obj 235 330 t a;
#X obj 274 199 hsl 128 15 0 1 0 0 empty empty empty -2 -8 0 10 -258113
-1 -1 0 1;
#X obj 272 162 tgl 15 0 empty empty empty 17 7 0 10 -262144 -1 -1 0
1;
#X obj 275 120 hsl 128 15 0 1 0 0 empty empty empty -2 -8 0 10 -262144
-1 -1 0 1;
#X msg 272 139 f alpha \$1;
#X obj 271 285 hsl 128 15 0 1 0 0 empty empty empty -2 -8 0 10 -128992
-1 -1 0 1;
#X obj 269 246 tgl 15 0 empty empty empty 17 7 0 10 -262144 -1 -1 0
1;
#X obj 412 244 hsl 128 15 0 1 0 0 empty empty empty -2 -8 0 10 -262144
-1 -1 0 1;
#X obj 412 286 hsl 128 15 0 1 0 0 empty empty empty -2 -8 0 10 -262144
-1 -1 0 1;
#X msg 271 217 3f color 1 \$1 \$1;
#X msg 272 179 f colorOn \$1;
#X msg 268 304 3f chromaKey \$1 \$1 \$1;
#X msg 409 264 f chromaThreshold \$1;
#X msg 409 304 f chromaFade \$1;
#X msg 269 263 f chromaKeyOn \$1;
#X obj 271 373 hsl 128 15 -1 1 0 0 empty empty empty -2 -8 0 10 -262144
-1 -1 0 1;
#X msg 268 410 f brightness \$1;
#X obj 268 336 tgl 15 0 empty empty empty 17 7 0 10 -262144 -1 -1 0
1;
#X msg 268 353 f bcsOn \$1;
#X obj 408 372 hsl 128 15 1 8 1 0 empty empty empty -2 -8 0 10 -262144
-1 -1 0 1;
#X msg 405 412 f contrast \$1;
#X floatatom 405 392 5 0 0 0 - - -;
#X floatatom 268 393 5 0 0 0 - - -;
#X obj 67 269 pofshader;
#X msg 79 242 play \$1;
#X obj 79 220 tgl 15 0 empty empty empty 17 7 0 10 -262144 -1 -1 0
1;
#X msg 136 242 print;
#X obj 410 71 loadbang;
#X obj 106 51 pofbang 1;
#X msg 155 73 0;
#X msg 407 96 load shader/colorEngineES \, f alpha 1 \, f colorOn 1
\, 3f color 1 1 1 \, f chromaKeyOn 1 \, f bcsOn 1 \, f brightness 0
\, f contrast 1 \, f saturation 1, f 26;
#X obj 232 24 r fromOSC;
#X obj 232 45 route master rgb_1;
#X msg 275 67 3f color \$1 \$2 \$3;
#X obj 625 207 r fromOSC;
#X msg 619 273 3f chromaKey \$1 \$2 \$3;
#X obj 769 272 print;
#X obj 625 227 route chroma_rgb chroma_thres chroma_fade;
#X obj 631 305 r fromOSC;
#X obj 631 325 route brightness contrast saturation;
#X msg 586 412 f saturation \$1;
#X floatatom 765 380 5 0 0 0 - - -;
#X connect 0 0 25 0;
#X connect 0 0 30 0;
#X connect 2 0 25 0;
#X connect 3 0 11 0;
#X connect 4 0 12 0;
#X connect 5 0 6 0;
#X connect 6 0 2 0;
#X connect 7 0 13 0;
#X connect 8 0 16 0;
#X connect 9 0 14 0;
#X connect 10 0 15 0;
#X connect 11 0 2 0;
#X connect 12 0 2 0;
#X connect 13 0 2 0;
#X connect 14 0 2 0;
#X connect 15 0 2 0;
#X connect 16 0 2 0;
#X connect 17 0 24 0;
#X connect 18 0 2 0;
#X connect 19 0 20 0;
#X connect 20 0 2 0;
#X connect 21 0 23 0;
#X connect 22 0 2 0;
#X connect 23 0 22 0;
#X connect 24 0 18 0;
#X connect 25 0 1 0;
#X connect 26 0 25 0;
#X connect 27 0 26 0;
#X connect 30 1 31 0;
#X connect 30 1 32 0;
#X connect 31 0 30 0;
#X connect 32 0 2 0;
#X connect 33 0 34 0;
#X connect 34 0 5 0;
#X connect 34 1 35 0;
#X connect 35 0 2 0;
#X connect 36 0 39 0;
#X connect 37 0 2 0;
#X connect 39 0 37 0;
#X connect 39 1 9 0;
#X connect 39 2 10 0;
#X connect 40 0 41 0;
#X connect 41 0 18 0;
#X connect 41 1 22 0;
#X connect 41 2 42 0;
#X connect 41 2 43 0;
#X connect 42 0 2 0;
#X restore 17 462 pd shader;
#X connect 1 0 13 0;
#X connect 2 1 46 0;
#X connect 3 0 2 0;
#X connect 4 0 2 0;
#X connect 5 0 4 0;
#X connect 6 0 2 0;
#X connect 7 0 12 0;
#X connect 8 0 2 0;
#X connect 9 0 8 0;
#X connect 10 0 12 0;
#X connect 11 0 12 0;
#X connect 12 0 6 0;
#X connect 13 0 121 0;
#X connect 13 1 2 0;
#X connect 14 0 110 0;
#X connect 15 0 14 0;
#X connect 16 0 125 0;
#X connect 18 0 22 0;
#X connect 18 1 22 1;
#X connect 19 0 30 0;
#X connect 20 0 23 0;
#X connect 20 1 23 1;
#X connect 21 0 30 0;
#X connect 22 0 19 0;
#X connect 23 0 21 0;
#X connect 24 0 29 0;
#X connect 24 1 29 1;
#X connect 25 0 28 0;
#X connect 25 1 28 1;
#X connect 26 0 30 0;
#X connect 27 0 30 0;
#X connect 28 0 27 0;
#X connect 29 0 26 0;
#X connect 30 0 17 0;
#X connect 31 0 18 0;
#X connect 32 0 22 0;
#X connect 33 0 20 0;
#X connect 34 0 23 0;
#X connect 35 0 24 0;
#X connect 36 0 29 0;
#X connect 37 0 25 0;
#X connect 38 0 28 0;
#X connect 39 0 3 0;
#X connect 40 0 39 0;
#X connect 41 0 39 0;
#X connect 42 0 43 0;
#X connect 42 1 44 0;
#X connect 42 2 45 0;
#X connect 46 0 42 0;
#X connect 47 0 60 0;
#X connect 47 0 71 1;
#X connect 48 0 39 0;
#X connect 49 0 50 0;
#X connect 49 0 71 0;
#X connect 49 0 63 0;
#X connect 50 0 51 0;
#X connect 50 1 51 1;
#X connect 51 0 52 0;
#X connect 53 0 49 0;
#X connect 54 0 56 1;
#X connect 54 0 57 0;
#X connect 54 0 61 1;
#X connect 55 0 56 0;
#X connect 56 0 54 0;
#X connect 58 0 39 0;
#X connect 59 0 39 0;
#X connect 60 0 55 0;
#X connect 61 0 62 0;
#X connect 63 0 64 0;
#X connect 63 1 61 0;
#X connect 64 0 56 1;
#X connect 65 0 14 0;
#X connect 66 0 65 0;
#X connect 67 0 65 0;
#X connect 68 0 65 0;
#X connect 70 0 72 1;
#X connect 70 1 72 0;
#X connect 71 0 70 0;
#X connect 72 0 73 0;
#X connect 74 0 65 0;
#X connect 75 0 39 0;
#X connect 76 0 39 0;
#X connect 77 0 39 0;
#X connect 78 0 39 0;
#X connect 79 0 14 0;
#X connect 80 0 14 0;
#X connect 81 0 82 0;
#X connect 82 0 83 0;
#X connect 82 1 98 0;
#X connect 82 2 86 0;
#X connect 82 3 99 0;
#X connect 83 0 84 0;
#X connect 84 0 32 0;
#X connect 85 0 104 0;
#X connect 86 0 87 0;
#X connect 87 0 34 0;
#X connect 88 0 103 0;
#X connect 89 0 96 0;
#X connect 90 0 91 0;
#X connect 91 0 36 0;
#X connect 92 0 106 0;
#X connect 93 0 94 0;
#X connect 94 0 38 0;
#X connect 95 0 105 0;
#X connect 96 0 90 0;
#X connect 96 1 100 0;
#X connect 96 2 93 0;
#X connect 96 3 101 0;
#X connect 98 0 88 0;
#X connect 99 0 85 0;
#X connect 100 0 95 0;
#X connect 101 0 92 0;
#X connect 102 0 97 0;
#X connect 103 0 31 0;
#X connect 104 0 33 0;
#X connect 105 0 35 0;
#X connect 106 0 37 0;
#X connect 107 0 108 0;
#X connect 107 1 109 0;
#X connect 107 1 111 0;
#X connect 110 0 107 0;
#X connect 111 1 112 0;
#X connect 112 0 113 0;
#X connect 113 0 79 0;
#X connect 114 0 115 0;
#X connect 115 0 116 0;
#X connect 116 0 83 0;
#X connect 116 1 88 0;
#X connect 116 2 86 0;
#X connect 116 3 85 0;
#X connect 116 4 93 0;
#X connect 116 5 101 0;
#X connect 116 6 90 0;
#X connect 116 7 100 0;
#X connect 117 0 118 0;
#X connect 118 0 5 0;
#X connect 119 0 123 0;
#X connect 120 0 40 0;
#X connect 120 1 41 0;
#X connect 120 2 78 0;
#X connect 121 0 16 0;
#X connect 122 0 121 1;
#X connect 123 0 120 0;
#X connect 123 1 121 4;
#X connect 123 2 124 0;
#X connect 124 0 121 1;
#X connect 124 1 121 2;
#X connect 124 2 121 3;
#X connect 125 0 17 0;
