#N canvas 2629 687 817 761 10;
#X declare -lib pof;
#X obj 41 22 declare -lib pof;
#X obj 15 167 pofhead;
#X obj 15 556 pofquad 1360 768;
#X obj 332 458 t a;
#X obj 206 16 r fromOSC;
#X obj 15 405 pofcolor 1 1 1 1;
#X floatatom 52 340 5 0 0 0 - - -;
#N canvas 72 87 1848 993 shader 0;
#X obj 67 22 inlet;
#X obj 67 447 outlet;
#X obj 235 330 t a;
#X obj 274 199 hsl 128 15 0 1 0 0 empty empty empty -2 -8 0 10 -258113
-1 -1 0 1;
#X obj 272 162 tgl 15 0 empty empty empty 17 7 0 10 -262144 -1 -1 0
1;
#X obj 275 120 hsl 128 15 0 1 0 0 empty empty empty -2 -8 0 10 -262144
-1 -1 0 1;
#X msg 272 139 f alpha \$1;
#X obj 271 285 hsl 128 15 0 1 0 0 empty empty empty -2 -8 0 10 -128992
-1 -1 0 1;
#X obj 269 246 tgl 15 0 empty empty empty 17 7 0 10 -262144 -1 -1 0
1;
#X obj 412 244 hsl 128 15 0 1 0 0 empty empty empty -2 -8 0 10 -262144
-1 -1 0 1;
#X obj 412 286 hsl 128 15 0 1 0 0 empty empty empty -2 -8 0 10 -262144
-1 -1 0 1;
#X msg 271 217 3f color 1 \$1 \$1;
#X msg 272 179 f colorOn \$1;
#X msg 268 304 3f chromaKey \$1 \$1 \$1;
#X msg 409 264 f chromaThreshold \$1;
#X msg 409 304 f chromaFade \$1;
#X msg 269 263 f chromaKeyOn \$1;
#X obj 271 373 hsl 128 15 -1 1 0 0 empty empty empty -2 -8 0 10 -262144
-1 -1 0 1;
#X msg 268 410 f brightness \$1;
#X obj 268 336 tgl 15 0 empty empty empty 17 7 0 10 -262144 -1 -1 0
1;
#X msg 268 353 f bcsOn \$1;
#X obj 408 372 hsl 128 15 1 8 1 0 empty empty empty -2 -8 0 10 -262144
-1 -1 0 1;
#X msg 405 412 f contrast \$1;
#X floatatom 405 392 5 0 0 0 - - -;
#X floatatom 268 393 5 0 0 0 - - -;
#X obj 67 269 pofshader;
#X msg 79 242 play \$1;
#X obj 79 220 tgl 15 0 empty empty empty 17 7 0 10 -262144 -1 -1 0
1;
#X msg 136 242 print;
#X obj 410 71 loadbang;
#X obj 106 51 pofbang 1;
#X msg 155 73 0;
#X msg 420 116 load shader/colorEngineES \, f alpha 1 \, f colorOn
1 \, 3f color 1 1 1 \, f chromaKeyOn 1 \, f bcsOn 1 \, f brightness
0 \, f contrast 1 \, f saturation 1, f 26;
#X obj 216 10 r fromOSC;
#X msg 277 88 3f color \$1 \$2 \$3;
#X obj 618 188 r fromOSC;
#X msg 619 273 3f chromaKey \$1 \$2 \$3;
#X obj 769 272 print;
#X obj 618 208 route chroma_rgb chroma_thres chroma_fade;
#X obj 631 305 r fromOSC;
#X obj 631 325 route brightness contrast saturation;
#X msg 586 412 f saturation \$1;
#X obj 96 138 r fromOSC;
#X obj 98 177 route shaderonoff;
#N canvas 150 237 711 492 line 0;
#X obj 56 18 inlet;
#X obj 285 16 inlet;
#X obj 56 223 outlet;
#X obj 56 82 pack f f;
#X obj 56 105 line;
#X obj 118 84 pack f f;
#X obj 118 107 line;
#X obj 181 84 pack f f;
#X obj 181 107 line;
#X obj 56 59 unpack f f f, f 22;
#X obj 55 128 t b f, f 7;
#X obj 55 162 del 1;
#X obj 55 182 f, f 7;
#X obj 55 201 pack f f f, f 21;
#X obj 117 127 t b f, f 7;
#X obj 181 127 t b f, f 7;
#X connect 0 0 9 0;
#X connect 1 0 7 1;
#X connect 1 0 5 1;
#X connect 1 0 3 1;
#X connect 3 0 4 0;
#X connect 4 0 10 0;
#X connect 5 0 6 0;
#X connect 6 0 14 0;
#X connect 7 0 8 0;
#X connect 8 0 15 0;
#X connect 9 0 3 0;
#X connect 9 1 5 0;
#X connect 9 2 7 0;
#X connect 10 0 11 0;
#X connect 10 1 12 1;
#X connect 11 0 12 0;
#X connect 12 0 13 0;
#X connect 13 0 2 0;
#X connect 14 0 11 0;
#X connect 14 1 13 1;
#X connect 15 0 11 0;
#X connect 15 1 13 2;
#X restore 277 66 pd line;
#X obj 216 39 route master rgb_1 line;
#X obj 216 66 pack f f;
#X obj 216 89 line;
#N canvas 150 237 711 492 line3 0;
#X obj 56 18 inlet;
#X obj 56 223 outlet;
#X obj 56 82 pack f f;
#X obj 56 105 line;
#X obj 118 84 pack f f;
#X obj 118 107 line;
#X obj 181 84 pack f f;
#X obj 181 107 line;
#X obj 56 59 unpack f f f, f 22;
#X obj 55 128 t b f, f 7;
#X obj 55 162 del 1;
#X obj 55 182 f, f 7;
#X obj 55 201 pack f f f, f 21;
#X obj 117 127 t b f, f 7;
#X obj 181 127 t b f, f 7;
#X obj 226 17 r fromOSC;
#X obj 226 45 route line;
#X connect 0 0 8 0;
#X connect 2 0 3 0;
#X connect 3 0 9 0;
#X connect 4 0 5 0;
#X connect 5 0 13 0;
#X connect 6 0 7 0;
#X connect 7 0 14 0;
#X connect 8 0 2 0;
#X connect 8 1 4 0;
#X connect 8 2 6 0;
#X connect 9 0 10 0;
#X connect 9 1 11 1;
#X connect 10 0 11 0;
#X connect 11 0 12 0;
#X connect 12 0 1 0;
#X connect 13 0 10 0;
#X connect 13 1 12 1;
#X connect 14 0 10 0;
#X connect 14 1 12 2;
#X connect 15 0 16 0;
#X connect 16 0 6 1;
#X connect 16 0 4 1;
#X connect 16 0 2 1;
#X restore 618 233 pd line3;
#N canvas 150 237 711 492 line1 0;
#X obj 56 18 inlet;
#X obj 56 223 outlet;
#X obj 56 82 pack f f;
#X obj 56 105 line;
#X obj 226 17 r fromOSC;
#X obj 226 45 route line;
#X connect 0 0 2 0;
#X connect 2 0 3 0;
#X connect 3 0 1 0;
#X connect 4 0 5 0;
#X connect 5 0 2 1;
#X restore 699 232 pd line1;
#N canvas 150 237 711 492 line1 0;
#X obj 56 18 inlet;
#X obj 56 223 outlet;
#X obj 56 82 pack f f;
#X obj 56 105 line;
#X obj 226 17 r fromOSC;
#X obj 226 45 route line;
#X connect 0 0 2 0;
#X connect 2 0 3 0;
#X connect 3 0 1 0;
#X connect 4 0 5 0;
#X connect 5 0 2 1;
#X restore 780 229 pd line1;
#N canvas 150 237 711 492 line1 0;
#X obj 56 18 inlet;
#X obj 56 223 outlet;
#X obj 56 82 pack f f;
#X obj 56 105 line;
#X obj 226 17 r fromOSC;
#X obj 226 45 route line;
#X connect 0 0 2 0;
#X connect 2 0 3 0;
#X connect 3 0 1 0;
#X connect 4 0 5 0;
#X connect 5 0 2 1;
#X restore 631 346 pd line1;
#N canvas 150 237 711 492 line1 0;
#X obj 56 18 inlet;
#X obj 56 223 outlet;
#X obj 56 82 pack f f;
#X obj 56 105 line;
#X obj 226 17 r fromOSC;
#X obj 226 45 route line;
#X connect 0 0 2 0;
#X connect 2 0 3 0;
#X connect 3 0 1 0;
#X connect 4 0 5 0;
#X connect 5 0 2 1;
#X restore 700 346 pd line1;
#N canvas 150 237 711 492 line1 0;
#X obj 56 18 inlet;
#X obj 56 223 outlet;
#X obj 56 82 pack f f;
#X obj 56 105 line;
#X obj 226 17 r fromOSC;
#X obj 226 45 route line;
#X connect 0 0 2 0;
#X connect 2 0 3 0;
#X connect 3 0 1 0;
#X connect 4 0 5 0;
#X connect 5 0 2 1;
#X restore 775 350 pd line1;
#X connect 0 0 25 0;
#X connect 0 0 30 0;
#X connect 2 0 25 0;
#X connect 3 0 11 0;
#X connect 4 0 12 0;
#X connect 5 0 6 0;
#X connect 6 0 2 0;
#X connect 7 0 13 0;
#X connect 8 0 16 0;
#X connect 9 0 14 0;
#X connect 10 0 15 0;
#X connect 11 0 2 0;
#X connect 12 0 2 0;
#X connect 13 0 2 0;
#X connect 14 0 2 0;
#X connect 15 0 2 0;
#X connect 16 0 2 0;
#X connect 17 0 24 0;
#X connect 18 0 2 0;
#X connect 19 0 20 0;
#X connect 20 0 2 0;
#X connect 21 0 23 0;
#X connect 22 0 2 0;
#X connect 23 0 22 0;
#X connect 24 0 18 0;
#X connect 25 0 1 0;
#X connect 26 0 25 0;
#X connect 27 0 26 0;
#X connect 30 1 31 0;
#X connect 30 1 32 0;
#X connect 31 0 30 0;
#X connect 32 0 2 0;
#X connect 34 0 2 0;
#X connect 35 0 38 0;
#X connect 36 0 2 0;
#X connect 38 0 48 0;
#X connect 38 1 49 0;
#X connect 38 2 50 0;
#X connect 39 0 40 0;
#X connect 40 0 51 0;
#X connect 40 1 52 0;
#X connect 40 2 53 0;
#X connect 41 0 2 0;
#X connect 42 0 43 0;
#X connect 43 0 27 0;
#X connect 44 0 34 0;
#X connect 45 0 46 0;
#X connect 45 1 44 0;
#X connect 45 2 44 1;
#X connect 45 2 46 1;
#X connect 46 0 47 0;
#X connect 47 0 5 0;
#X connect 48 0 36 0;
#X connect 49 0 9 0;
#X connect 50 0 10 0;
#X connect 51 0 18 0;
#X connect 52 0 22 0;
#X connect 53 0 41 0;
#X restore 644 292 pd shader;
#N canvas 908 339 468 379 line_unpack 0;
#X obj 56 18 inlet;
#X obj 56 236 outlet;
#X obj 56 157 pack f f;
#X obj 56 180 line;
#X obj 118 238 outlet;
#X obj 118 159 pack f f;
#X obj 118 182 line;
#X obj 181 238 outlet;
#X obj 181 159 pack f f;
#X obj 181 182 line;
#X obj 56 64 pack f f f f;
#X obj 56 41 t a b;
#X msg 125 40 0;
#X obj 56 114 unpack f f f f, f 32;
#X obj 56 208 / 255;
#X obj 118 210 / 255;
#X obj 181 210 / 255;
#X connect 0 0 11 0;
#X connect 2 0 3 0;
#X connect 3 0 14 0;
#X connect 5 0 6 0;
#X connect 6 0 15 0;
#X connect 8 0 9 0;
#X connect 9 0 16 0;
#X connect 10 0 13 0;
#X connect 11 0 10 0;
#X connect 11 1 12 0;
#X connect 12 0 10 3;
#X connect 13 0 2 0;
#X connect 13 1 5 0;
#X connect 13 2 8 0;
#X connect 13 3 2 1;
#X connect 13 3 5 1;
#X connect 13 3 8 1;
#X connect 14 0 1 0;
#X connect 15 0 4 0;
#X connect 16 0 7 0;
#X restore 66 366 pd line_unpack;
#X obj 168 372 line;
#X obj 462 49 pofwin;
#X obj 462 22 tgl 15 0 empty empty empty 17 7 0 10 -262144 -1 -1 0
1;
#X msg 407 458 res \$1 \$1;
#X msg 407 430 2;
#X msg 478 430 40, f 4;
#X msg 439 430 5;
#N canvas 2180 742 828 663 players 0;
#X msg 71 374 load \$1;
#X msg 112 432 play \$1;
#X msg 169 431 speed \$1;
#X msg 230 381 1;
#X msg 233 433 goto \$1;
#X floatatom 233 412 5 0 0 0 - - -;
#X msg 169 383 0.5;
#X msg 199 381 0;
#X floatatom 169 409 5 0 0 0 - - -;
#X obj 71 354 makefilename films/%02d.mov;
#X obj 97 536 unpack f f f;
#X floatatom 97 558 5 0 0 3 width - -;
#X floatatom 143 559 5 0 0 3 height - -;
#X floatatom 191 558 5 0 0 3 nb_frames - -;
#X obj 97 505 route size frame;
#X symbolatom 88 401 20 0 0 0 - - -;
#X msg 147 329 1;
#X obj 146 302 t b f;
#X msg 526 346 load \$1;
#X msg 517 429 play \$1;
#X obj 517 408 tgl 15 0 empty empty empty 17 7 0 10 -262144 -1 -1 0
1;
#X obj 526 326 makefilename films/%02d.mov;
#X obj 512 514 unpack f f f;
#X floatatom 512 536 5 0 0 3 width - -;
#X floatatom 552 536 5 0 0 3 height - -;
#X floatatom 606 536 5 0 0 3 nb_frames - -;
#X obj 512 483 route size frame;
#X symbolatom 543 373 20 0 0 0 - - -;
#X msg 602 301 1;
#X obj 597 261 t b f;
#X msg 606 232 1;
#X msg 4 331 useOMX \$1;
#X obj 22 309 tgl 15 0 empty empty empty 17 7 0 10 -262144 -1 -1 0
1;
#X obj 64 25 inlet;
#X obj 337 67 s \$0-playfilm;
#X msg 336 32 1;
#X msg 371 30 2;
#X msg 79 424 0;
#X obj 64 477 poffilm 1024;
#X obj 276 277 r \$0-windowsize;
#X obj 276 300 unpack f;
#X obj 140 72 r \$0-windowsize;
#X obj 140 95 unpack f f;
#X obj 64 119 poffbo 1024 768 playersfbo;
#X obj 288 180 hsl 128 15 0 1 0 0 empty empty empty -2 -8 0 10 -262144
-1 -1 0 1;
#X obj 64 48 poftranslate 1e+06;
#X obj 64 209 t a a, f 64;
#X obj 480 456 poffilm 1024;
#X obj 190 238 f;
#X obj 64 235 pofcolor 1 1 1 1;
#X obj 402 323 != 1;
#X obj 102 273 != 0;
#X obj 502 9 r \$0-playfilm;
#X obj 501 40 unpack f f;
#X obj 501 63 t b f;
#X obj 501 88 tgl 15 0 empty empty empty 17 7 0 10 -262144 -1 -1 0
1;
#X obj 501 108 list append;
#X obj 502 140 route 0 1;
#X obj 381 127 pack f f;
#X obj 443 128 * 1000;
#X obj 381 150 line;
#X floatatom 542 179 5 0 0 0 - - -;
#X floatatom 477 188 5 0 0 0 - - -;
#X msg 204 301 2;
#X obj 64 300 pofvisible 1;
#X obj 446 336 pofvisible 1;
#X obj 8 246 tgl 15 0 empty empty empty 17 7 0 10 -262144 -1 -1 0 1
;
#X connect 0 0 38 0;
#X connect 1 0 38 0;
#X connect 2 0 38 0;
#X connect 3 0 8 0;
#X connect 4 0 38 0;
#X connect 5 0 4 0;
#X connect 6 0 8 0;
#X connect 7 0 8 0;
#X connect 8 0 2 0;
#X connect 9 0 0 0;
#X connect 9 0 15 0;
#X connect 10 0 11 0;
#X connect 10 1 12 0;
#X connect 10 2 13 0;
#X connect 14 0 10 0;
#X connect 17 0 16 0;
#X connect 17 1 9 0;
#X connect 18 0 47 0;
#X connect 19 0 47 0;
#X connect 20 0 19 0;
#X connect 21 0 18 0;
#X connect 21 0 27 0;
#X connect 22 0 23 0;
#X connect 22 1 24 0;
#X connect 22 2 25 0;
#X connect 26 0 22 0;
#X connect 29 0 28 0;
#X connect 29 1 21 0;
#X connect 30 0 29 0;
#X connect 31 0 38 0;
#X connect 31 0 47 0;
#X connect 32 0 31 0;
#X connect 33 0 45 0;
#X connect 35 0 34 0;
#X connect 36 0 34 0;
#X connect 37 0 1 0;
#X connect 38 1 14 0;
#X connect 39 0 40 0;
#X connect 40 0 38 1;
#X connect 40 0 47 1;
#X connect 41 0 42 0;
#X connect 42 0 43 1;
#X connect 42 1 43 2;
#X connect 43 0 46 0;
#X connect 44 0 48 0;
#X connect 45 0 43 0;
#X connect 46 0 49 0;
#X connect 46 1 65 0;
#X connect 47 1 26 0;
#X connect 48 0 49 4;
#X connect 48 0 50 0;
#X connect 48 0 51 0;
#X connect 49 0 64 0;
#X connect 50 0 20 0;
#X connect 51 0 1 0;
#X connect 53 0 54 0;
#X connect 53 1 59 0;
#X connect 54 0 55 0;
#X connect 54 1 56 1;
#X connect 55 0 56 0;
#X connect 55 0 58 0;
#X connect 57 0 29 0;
#X connect 57 0 62 0;
#X connect 57 1 17 0;
#X connect 57 1 61 0;
#X connect 58 0 60 0;
#X connect 59 0 58 1;
#X connect 60 0 44 0;
#X connect 63 0 17 0;
#X connect 64 0 38 0;
#X connect 65 0 47 0;
#X connect 66 0 64 0;
#X connect 66 0 65 0;
#X restore 643 249 pd players;
#X obj 114 112 s \$0-playfilm;
#X obj 462 72 route window;
#X obj 462 94 s \$0-windowsize;
#X obj 493 19 bng 15 250 50 0 empty empty empty 17 7 0 10 -262144 -1
-1;
#N canvas 2337 940 850 599 corners 0;
#X obj 94 269 t b f;
#X msg 40 322 corner 0 \$1 \$2;
#X obj 224 267 t b f;
#X msg 176 320 corner 1 \$1 \$2;
#X obj 40 300 pack -200 -150;
#X obj 176 298 pack 200 -150;
#X obj 86 406 t b f;
#X obj 222 404 t b f;
#X msg 38 459 corner 3 \$1 \$2;
#X msg 174 457 corner 2 \$1 \$2;
#X obj 174 435 pack 200 150;
#X obj 38 437 pack -200 150;
#X obj 94 252 nbx 5 14 -1e+37 1e+37 0 1 empty empty empty 0 -8 0 10
-262144 -1 -1 -312 256;
#X obj 35 251 nbx 5 14 -1e+37 1e+37 0 1 empty empty empty 0 -8 0 10
-262144 -1 -1 -438.08 256;
#X obj 224 250 nbx 5 14 -1e+37 1e+37 0 1 empty empty empty 0 -8 0 10
-262144 -1 -1 -274.56 256;
#X obj 165 249 nbx 5 14 -1e+37 1e+37 0 1 empty empty empty 0 -8 0 10
-262144 -1 -1 142.08 256;
#X obj 86 382 nbx 5 14 -1e+37 1e+37 0 1 empty empty empty 0 -8 0 10
-262144 -1 -1 312 256;
#X obj 27 381 nbx 5 14 -1e+37 1e+37 0 1 empty empty empty 0 -8 0 10
-262144 -1 -1 -592 256;
#X obj 222 380 nbx 5 14 -1e+37 1e+37 0 1 empty empty empty 0 -8 0 10
-262144 -1 -1 283.92 256;
#X obj 163 379 nbx 5 14 -1e+37 1e+37 0 1 empty empty empty 0 -8 0 10
-262144 -1 -1 213.12 256;
#X obj 43 126 r fromOSC;
#X obj 43 149 route 1X 1Y 2X 2Y, f 37;
#X obj 43 173 clip -1 1;
#X obj 43 194 * 512;
#X obj 222 193 clip -1 1;
#X obj 163 173 clip -1 1;
#X obj 163 194 * 512;
#X obj 102 193 clip -1 1;
#X obj 283 266 r fromOSC;
#X obj 283 313 clip -1 1;
#X obj 283 334 * 512;
#X obj 462 333 clip -1 1;
#X obj 403 313 clip -1 1;
#X obj 403 334 * 512;
#X obj 342 333 clip -1 1;
#X obj 283 289 route 4X 4Y 3X 3Y, f 37;
#X obj 526 205 s fromOSC;
#X obj 102 171 - 0;
#X obj 222 173 - 0;
#X obj 342 311 - 0;
#X obj 462 313 - 0;
#X msg 526 176 1X -1 \, 1Y 1 \, 2X 1 \, 2Y 1 \, 3X 1 \, 3Y -1 \, 4X
-1 \, 4Y -1;
#X obj 102 214 * -384;
#X obj 222 214 * -384;
#X obj 342 354 * -384;
#X obj 462 354 * -384;
#X obj 132 28 r fromOSC;
#N canvas 728 343 780 282 line_unpack 0;
#X obj 56 18 inlet;
#X obj 56 201 outlet;
#X obj 56 152 pack f f;
#X obj 56 175 line;
#X obj 118 203 outlet;
#X obj 118 154 pack f f;
#X obj 118 177 line;
#X obj 181 203 outlet;
#X obj 181 154 pack f f;
#X obj 181 177 line;
#X obj 243 205 outlet;
#X obj 243 156 pack f f;
#X obj 243 179 line;
#X obj 308 205 outlet;
#X obj 308 156 pack f f;
#X obj 308 179 line;
#X obj 370 207 outlet;
#X obj 370 158 pack f f;
#X obj 370 181 line;
#X obj 433 207 outlet;
#X obj 433 158 pack f f;
#X obj 433 181 line;
#X obj 495 209 outlet;
#X obj 495 160 pack f f;
#X obj 495 183 line;
#X obj 56 99 unpack f f f f f f f f f, f 85;
#X obj 56 41 t a b;
#X obj 56 64 pack f f f f f f f f f;
#X msg 185 40 0;
#X connect 0 0 26 0;
#X connect 2 0 3 0;
#X connect 3 0 1 0;
#X connect 5 0 6 0;
#X connect 6 0 4 0;
#X connect 8 0 9 0;
#X connect 9 0 7 0;
#X connect 11 0 12 0;
#X connect 12 0 10 0;
#X connect 14 0 15 0;
#X connect 15 0 13 0;
#X connect 17 0 18 0;
#X connect 18 0 16 0;
#X connect 20 0 21 0;
#X connect 21 0 19 0;
#X connect 23 0 24 0;
#X connect 24 0 22 0;
#X connect 25 0 2 0;
#X connect 25 1 5 0;
#X connect 25 2 8 0;
#X connect 25 3 11 0;
#X connect 25 4 14 0;
#X connect 25 5 17 0;
#X connect 25 6 20 0;
#X connect 25 7 23 0;
#X connect 25 8 23 1;
#X connect 25 8 20 1;
#X connect 25 8 17 1;
#X connect 25 8 14 1;
#X connect 25 8 11 1;
#X connect 25 8 8 1;
#X connect 25 8 5 1;
#X connect 25 8 2 1;
#X connect 26 0 27 0;
#X connect 26 1 28 0;
#X connect 27 0 25 0;
#X connect 28 0 27 8;
#X restore 132 75 pd line_unpack;
#X f 21;
#X obj 92 500 outlet;
#X obj 132 49 route quad;
#X obj 425 45 r \$0-windowsize;
#X obj 425 68 unpack f f;
#X obj 425 91 * 0.5;
#X obj 481 91 * -0.5;
#X obj 582 116 inlet reset;
#X connect 0 0 4 0;
#X connect 0 1 4 1;
#X connect 1 0 48 0;
#X connect 2 0 5 0;
#X connect 2 1 5 1;
#X connect 3 0 48 0;
#X connect 4 0 1 0;
#X connect 5 0 3 0;
#X connect 6 0 11 0;
#X connect 6 1 11 1;
#X connect 7 0 10 0;
#X connect 7 1 10 1;
#X connect 8 0 48 0;
#X connect 9 0 48 0;
#X connect 10 0 9 0;
#X connect 11 0 8 0;
#X connect 12 0 0 0;
#X connect 13 0 4 0;
#X connect 14 0 2 0;
#X connect 15 0 5 0;
#X connect 16 0 6 0;
#X connect 17 0 11 0;
#X connect 18 0 7 0;
#X connect 19 0 10 0;
#X connect 20 0 21 0;
#X connect 21 0 22 0;
#X connect 21 1 37 0;
#X connect 21 2 25 0;
#X connect 21 3 38 0;
#X connect 22 0 23 0;
#X connect 23 0 13 0;
#X connect 24 0 43 0;
#X connect 25 0 26 0;
#X connect 26 0 15 0;
#X connect 27 0 42 0;
#X connect 28 0 35 0;
#X connect 29 0 30 0;
#X connect 30 0 17 0;
#X connect 31 0 45 0;
#X connect 32 0 33 0;
#X connect 33 0 19 0;
#X connect 34 0 44 0;
#X connect 35 0 29 0;
#X connect 35 1 39 0;
#X connect 35 2 32 0;
#X connect 35 3 40 0;
#X connect 37 0 27 0;
#X connect 38 0 24 0;
#X connect 39 0 34 0;
#X connect 40 0 31 0;
#X connect 41 0 36 0;
#X connect 42 0 12 0;
#X connect 43 0 14 0;
#X connect 44 0 16 0;
#X connect 45 0 18 0;
#X connect 46 0 49 0;
#X connect 47 0 22 0;
#X connect 47 1 27 0;
#X connect 47 2 25 0;
#X connect 47 3 24 0;
#X connect 47 4 32 0;
#X connect 47 5 40 0;
#X connect 47 6 29 0;
#X connect 47 7 39 0;
#X connect 49 0 47 0;
#X connect 50 0 51 0;
#X connect 51 0 52 0;
#X connect 51 1 53 0;
#X connect 52 0 23 1;
#X connect 52 0 26 1;
#X connect 52 0 30 1;
#X connect 52 0 33 1;
#X connect 53 0 42 1;
#X connect 53 0 43 1;
#X connect 53 0 44 1;
#X connect 53 0 45 1;
#X connect 54 0 41 0;
#X restore 333 429 pd corners;
#X obj 383 217 clone -s 1 videoplayer 12;
#X obj 387 265 bng 15 250 50 0 stopallfilms empty stopallfilms 17 7
0 10 -258113 -1 -1;
#N canvas 2765 689 740 536 fade 0;
#X obj 287 21 r \$0-playfilm;
#X obj 287 53 unpack f f;
#X obj 248 107 tgl 15 0 empty empty empty 17 7 0 10 -262144 -1 -1 0
1;
#X obj 287 174 list append;
#X obj 287 200 route 0 1;
#X obj 163 146 pack f f;
#X obj 344 83 * 1000;
#X obj 163 169 line;
#X obj 38 6 inlet;
#X obj 65 268 t a a, f 23;
#X obj 65 355 pofcolor 1 1 1 1;
#X msg 208 229 set film\$1;
#X msg 287 233 set film\$1;
#X obj 99 197 s filmfade;
#X obj 399 124 s currentfilm;
#X obj 90 123 hsl 128 15 0 1 0 0 empty empty empty -2 -8 0 10 -262144
-1 -1 12700 1;
#X msg 313 271 film2;
#X msg 233 259 film7;
#X floatatom 428 178 5 0 0 0 - - -;
#X obj 114 53 r \$0-windowsize;
#X obj 114 76 unpack f f;
#X obj 38 100 poffbo 1024 768 playersfbo;
#X obj 38 29 poftranslate 1e+06;
#X obj 65 431 pofplane 1024 768;
#X obj 200 432 pofplane 1024 768;
#X obj 324 327 r \$0-windowsize;
#X obj 324 350 unpack f f;
#X obj 65 386 poftexture film1;
#X obj 200 388 poftexture film2;
#X obj 38 219 pofrotate x 180;
#X obj 38 244 t a a;
#X obj 38 487 outlet cache;
#X floatatom 351 392 5 0 0 0 - - -;
#X floatatom 343 425 5 0 0 0 - - -;
#N canvas 2174 661 974 287 (subpatch) 0;
#X msg 142 58 ONE;
#X msg 110 58 ZERO;
#X msg 168 58 SRC_COLOR;
#X msg 352 58 SRC_ALPHA;
#X msg 230 58 ONE_MINUS_SRC_COLOR;
#X msg 414 58 ONE_MINUS_SRC_ALPHA;
#X msg 537 58 DEST_COLOR;
#X msg 735 58 DEST_ALPHA;
#X msg 606 58 ONE_MINUS_DEST_COLOR;
#X msg 804 58 ONE_MINUS_DEST_ALPHA;
#X msg 187 149 set SRC_ALPHA SRC_ALPHA;
#X msg 187 129 set SRC_ALPHA ONE_MINUS_SRC_ALPHA;
#X text 395 130 "normal" alpha;
#X msg 187 172 set ONE SRC_ALPHA;
#X msg 186 193 set DEST_COLOR ONE_MINUS_SRC_ALPHA;
#X obj 186 218 t a;
#X msg 142 98 ONE;
#X msg 110 98 ZERO;
#X msg 168 98 SRC_COLOR;
#X msg 351 98 SRC_ALPHA;
#X msg 230 98 ONE_MINUS_SRC_COLOR;
#X msg 414 98 ONE_MINUS_SRC_ALPHA;
#X msg 537 98 DEST_COLOR;
#X msg 735 98 DEST_ALPHA;
#X msg 606 98 ONE_MINUS_DEST_COLOR;
#X msg 804 98 ONE_MINUS_DEST_ALPHA;
#X obj 110 114 symbol;
#X obj 110 74 symbol;
#X obj 110 133 t b s;
#X obj 92 157 pack s s;
#X msg 92 178 set \$1 \$2;
#X text 60 58 source:;
#X text 73 99 dest:;
#X obj 186 241 outlet;
#X connect 0 0 27 0;
#X connect 1 0 27 0;
#X connect 2 0 27 0;
#X connect 3 0 27 0;
#X connect 4 0 27 0;
#X connect 5 0 27 0;
#X connect 6 0 27 0;
#X connect 7 0 27 0;
#X connect 8 0 27 0;
#X connect 9 0 27 0;
#X connect 10 0 15 0;
#X connect 11 0 15 0;
#X connect 13 0 15 0;
#X connect 14 0 15 0;
#X connect 15 0 33 0;
#X connect 16 0 26 0;
#X connect 17 0 26 0;
#X connect 18 0 26 0;
#X connect 19 0 26 0;
#X connect 20 0 26 0;
#X connect 21 0 26 0;
#X connect 22 0 26 0;
#X connect 23 0 26 0;
#X connect 24 0 26 0;
#X connect 25 0 26 0;
#X connect 26 0 28 0;
#X connect 27 0 29 0;
#X connect 28 0 29 0;
#X connect 28 1 29 1;
#X connect 29 0 30 0;
#X connect 30 0 15 0;
#X restore 105 295 pd;
#X obj 65 325 pofblend ONE ONE_MINUS_SRC_ALPHA;
#X msg 400 173 5;
#X msg 397 42 20;
#X msg 235 95 1;
#X obj 287 76 t b f b;
#X obj 287 146 f;
#X connect 0 0 1 0;
#X connect 1 0 39 0;
#X connect 1 1 6 0;
#X connect 2 0 5 0;
#X connect 2 0 40 1;
#X connect 3 0 4 0;
#X connect 4 0 12 0;
#X connect 4 1 11 0;
#X connect 5 0 7 0;
#X connect 6 0 5 1;
#X connect 7 0 10 4;
#X connect 7 0 13 0;
#X connect 7 0 10 3;
#X connect 7 0 10 2;
#X connect 7 0 10 1;
#X connect 8 0 22 0;
#X connect 9 0 35 0;
#X connect 9 1 28 0;
#X connect 10 0 27 0;
#X connect 11 0 17 0;
#X connect 11 0 27 0;
#X connect 12 0 16 0;
#X connect 12 0 28 0;
#X connect 15 0 7 0;
#X connect 19 0 20 0;
#X connect 20 0 21 1;
#X connect 20 1 21 2;
#X connect 21 0 29 0;
#X connect 22 0 21 0;
#X connect 25 0 26 0;
#X connect 26 0 23 1;
#X connect 26 0 24 1;
#X connect 26 1 23 2;
#X connect 26 1 24 2;
#X connect 26 1 32 0;
#X connect 27 0 23 0;
#X connect 28 0 24 0;
#X connect 29 0 30 0;
#X connect 30 0 31 0;
#X connect 30 1 9 0;
#X connect 33 0 24 2;
#X connect 34 0 35 0;
#X connect 35 0 10 0;
#X connect 36 0 3 1;
#X connect 37 0 6 0;
#X connect 38 0 5 0;
#X connect 39 0 40 0;
#X connect 39 1 3 1;
#X connect 39 1 14 0;
#X connect 39 2 2 0;
#X connect 40 0 3 0;
#X restore 34 281 pd fade;
#X f 8;
#X obj 54 246 s videoplayers-head;
#X msg 383 185 vis 2 1;
#X obj 15 469 poftexture playersfbo;
#X obj 15 194 t a a a;
#N canvas 1992 751 867 542 cache 0;
#X obj 37 37 inlet;
#X obj 511 55 r \$0-windowsize;
#X obj 511 78 unpack f f;
#X obj 37 173 t a a a a, f 70;
#X obj 37 63 t a a, f 24;
#X obj 452 243 poftranslate 0 -384;
#X floatatom 543 266 5 0 0 0 - - -;
#X obj 452 268 pofrotate -90;
#X obj 178 92 poftranslate 1e+06;
#X msg 231 59 setcolor 0 0 1 0 0 0 \, setcolor 1 0 1 0 0 1;
#X msg 231 31 setcolor 0 0 0 0 0 0 \, setcolor 1 0 0 0 0 1;
#X obj 315 236 poftranslate 0 384;
#X obj 315 261 pofrotate 90;
#X floatatom 687 260 5 0 0 0 - - -;
#X obj 177 238 poftranslate -512;
#X obj 177 263 pofrotate 180;
#X obj 38 485 pofimage \$0-cache;
#X obj 38 232 poftranslate 512;
#X obj 38 257 pofrotate 0;
#X obj 231 7 loadbang;
#X obj 37 138 pofblend;
#N canvas 2275 1133 974 287 (subpatch) 0;
#X msg 142 58 ONE;
#X msg 110 58 ZERO;
#X msg 168 58 SRC_COLOR;
#X msg 352 58 SRC_ALPHA;
#X msg 230 58 ONE_MINUS_SRC_COLOR;
#X msg 414 58 ONE_MINUS_SRC_ALPHA;
#X msg 537 58 DEST_COLOR;
#X msg 735 58 DEST_ALPHA;
#X msg 606 58 ONE_MINUS_DEST_COLOR;
#X msg 804 58 ONE_MINUS_DEST_ALPHA;
#X msg 187 149 set SRC_ALPHA SRC_ALPHA;
#X msg 187 129 set SRC_ALPHA ONE_MINUS_SRC_ALPHA;
#X text 395 130 "normal" alpha;
#X msg 187 172 set ONE SRC_ALPHA;
#X msg 186 193 set DEST_COLOR ONE_MINUS_SRC_ALPHA;
#X obj 186 218 t a;
#X msg 142 98 ONE;
#X msg 110 98 ZERO;
#X msg 168 98 SRC_COLOR;
#X msg 351 98 SRC_ALPHA;
#X msg 230 98 ONE_MINUS_SRC_COLOR;
#X msg 414 98 ONE_MINUS_SRC_ALPHA;
#X msg 537 98 DEST_COLOR;
#X msg 735 98 DEST_ALPHA;
#X msg 606 98 ONE_MINUS_DEST_COLOR;
#X msg 804 98 ONE_MINUS_DEST_ALPHA;
#X obj 110 114 symbol;
#X obj 110 74 symbol;
#X obj 110 133 t b s;
#X obj 92 157 pack s s;
#X msg 92 178 set \$1 \$2;
#X text 60 58 source:;
#X text 73 99 dest:;
#X obj 186 241 outlet;
#X connect 0 0 27 0;
#X connect 1 0 27 0;
#X connect 2 0 27 0;
#X connect 3 0 27 0;
#X connect 4 0 27 0;
#X connect 5 0 27 0;
#X connect 6 0 27 0;
#X connect 7 0 27 0;
#X connect 8 0 27 0;
#X connect 9 0 27 0;
#X connect 10 0 15 0;
#X connect 11 0 15 0;
#X connect 13 0 15 0;
#X connect 14 0 15 0;
#X connect 15 0 33 0;
#X connect 16 0 26 0;
#X connect 17 0 26 0;
#X connect 18 0 26 0;
#X connect 19 0 26 0;
#X connect 20 0 26 0;
#X connect 21 0 26 0;
#X connect 22 0 26 0;
#X connect 23 0 26 0;
#X connect 24 0 26 0;
#X connect 25 0 26 0;
#X connect 26 0 28 0;
#X connect 27 0 29 0;
#X connect 28 0 29 0;
#X connect 28 1 29 1;
#X connect 29 0 30 0;
#X connect 30 0 15 0;
#X restore 88 100 pd;
#X obj 178 130 pofimage \$0-cache 200 1;
#N canvas 2391 978 754 479 init 0;
#X obj 78 415 outlet;
#X msg 78 167 200;
#X obj 78 190 t f b f, f 13;
#X obj 78 213 until;
#X obj 78 236 i;
#X obj 107 237 + 1;
#X msg 117 214 0;
#X obj 78 259 t f f;
#X obj 105 284 /;
#X obj 105 307 pow 3;
#X msg 246 324 resize 200 1;
#X msg 78 375 setcolor \$1 0 \$3 0 0 \$2;
#X obj 174 317 tgl 15 0 empty empty empty 17 7 0 10 -262144 -1 -1 0
1;
#X obj 83 136 loadbang;
#X obj 178 9 inlet posthead;
#X obj 178 32 pofbang 1;
#X obj 273 133 t b b;
#X msg 322 67 0;
#X obj 229 60 i;
#X obj 259 62 + 1;
#X obj 229 106 moses 10;
#X msg 147 35 1;
#X obj 270 161 bng 15 250 50 0 empty empty empty 17 7 0 10 -262144
-1 -1;
#X floatatom 136 94 5 0 0 0 - - -;
#X obj 341 202 pofwin;
#X obj 341 225 route window;
#X obj 341 247 s \$0-windowsize;
#X obj 341 175 bng 15 250 50 0 empty empty empty 17 7 0 10 -262144
-1 -1;
#X obj 358 295 unpack f f;
#X floatatom 358 318 5 0 0 0 - - -;
#X floatatom 417 319 5 0 0 0 - - -;
#X obj 417 341 / 2;
#X floatatom 417 364 5 0 0 0 - - -;
#X obj 78 352 pack f f 0;
#X connect 1 0 2 0;
#X connect 2 0 3 0;
#X connect 2 1 6 0;
#X connect 2 2 8 1;
#X connect 3 0 4 0;
#X connect 4 0 5 0;
#X connect 4 0 7 0;
#X connect 5 0 4 1;
#X connect 6 0 4 1;
#X connect 7 0 33 0;
#X connect 7 1 8 0;
#X connect 8 0 9 0;
#X connect 9 0 33 1;
#X connect 10 0 0 0;
#X connect 11 0 0 0;
#X connect 12 0 33 2;
#X connect 13 0 1 0;
#X connect 14 0 15 0;
#X connect 15 1 18 0;
#X connect 16 0 1 0;
#X connect 16 0 22 0;
#X connect 16 0 27 0;
#X connect 16 1 17 0;
#X connect 17 0 15 0;
#X connect 17 0 18 1;
#X connect 18 0 19 0;
#X connect 18 0 20 0;
#X connect 19 0 18 1;
#X connect 20 1 16 0;
#X connect 21 0 15 0;
#X connect 24 0 25 0;
#X connect 25 0 26 0;
#X connect 25 0 28 0;
#X connect 27 0 24 0;
#X connect 28 0 29 0;
#X connect 28 1 30 0;
#X connect 30 0 31 0;
#X connect 31 0 32 0;
#X connect 33 0 11 0;
#X restore 121 98 pd init;
#X obj 38 458 poftranslate -100 0;
#X obj 681 119 inlet;
#X obj 511 101 / 2;
#X obj 568 101 / 2;
#X obj 526 217 * -1;
#X obj 210 212 * -1;
#X obj 681 142 / 1024;
#X obj 681 165 *;
#X obj 681 188 * 4;
#X obj 714 83 hsl 128 15 0 1 0 0 empty empty empty -2 -8 0 10 -262144
-1 -1 0 1;
#X obj 38 426 pofscale 1 1e+06;
#X connect 0 0 4 0;
#X connect 1 0 2 0;
#X connect 2 0 26 0;
#X connect 2 0 31 1;
#X connect 2 1 27 0;
#X connect 3 0 17 0;
#X connect 3 1 14 0;
#X connect 3 2 11 0;
#X connect 3 3 5 0;
#X connect 4 0 23 0;
#X connect 4 0 20 0;
#X connect 4 1 8 0;
#X connect 5 0 7 0;
#X connect 6 0 7 1;
#X connect 7 0 34 0;
#X connect 8 0 22 0;
#X connect 9 0 22 0;
#X connect 10 0 22 0;
#X connect 11 0 12 0;
#X connect 12 0 34 0;
#X connect 13 0 34 1;
#X connect 14 0 15 0;
#X connect 15 0 34 0;
#X connect 17 0 18 0;
#X connect 18 0 34 0;
#X connect 19 0 10 0;
#X connect 20 0 3 0;
#X connect 21 0 20 0;
#X connect 23 0 22 0;
#X connect 24 0 16 0;
#X connect 25 0 30 0;
#X connect 26 0 29 0;
#X connect 26 0 17 1;
#X connect 27 0 11 2;
#X connect 27 0 28 0;
#X connect 28 0 5 2;
#X connect 29 0 14 1;
#X connect 30 0 31 0;
#X connect 31 0 32 0;
#X connect 32 0 13 0;
#X connect 33 0 30 0;
#X connect 34 0 24 0;
#X restore 34 304 pd cache;
#X f 10;
#X obj 479 142 unpack f f;
#X floatatom 479 165 5 0 0 0 - - -;
#X floatatom 538 166 5 0 0 0 - - -;
#X obj 538 188 / 2;
#X floatatom 538 211 5 0 0 0 - - -;
#X obj 388 295 bng 15 250 50 0 reload_allfilms empty reload_allfilms
17 7 0 10 -260097 -1 -1;
#X obj 340 356 bng 15 250 50 0 empty empty empty 17 7 0 10 -262144
-1 -1;
#X obj 543 18 loadbang;
#X obj 543 41 del 2000;
#X obj 96 280 line;
#X obj 91 168 pofrect 1280 800;
#X floatatom 179 138 5 0 0 0 - - -;
#X floatatom 132 140 5 0 0 0 - - -;
#X msg 566 70 window 400 300 0 \, window 400 300 1 \, cursor 0;
#N canvas 72 87 645 375 old_auto_window_size 0;
#X obj 109 162 pofwin;
#X msg 192 109 window 1360 768 1 \, cursor 0;
#X msg 224 55 framerate \$1;
#X msg 224 29 8;
#X msg 254 30 25;
#X msg 285 30 60;
#X text 304 54 Set framerate.;
#X msg 171 32 30;
#X msg 147 75 window 1024 768 1 \, cursor 0;
#X obj 108 221 unpack f f;
#X floatatom 108 242 5 0 0 0 - - -;
#X floatatom 164 242 5 0 0 0 - - -;
#X obj 109 186 route window;
#X obj 254 272 b;
#X obj 254 293 del 500;
#X obj 27 95 tgl 15 0 empty empty empty 17 7 0 10 -262144 -1 -1 0 1
;
#X msg 308 187 window 1280 800 1 \, cursor 0;
#X obj 328 230 sel 768;
#X obj 202 240 sel 800;
#X msg 245 149 window 400 300 0 \, cursor 0;
#X msg 408 117 window 400 400 1 \, cursor 0;
#X connect 0 0 12 0;
#X connect 1 0 0 0;
#X connect 2 0 0 0;
#X connect 3 0 2 0;
#X connect 4 0 2 0;
#X connect 5 0 2 0;
#X connect 7 0 2 0;
#X connect 8 0 0 0;
#X connect 9 0 10 0;
#X connect 9 1 11 0;
#X connect 9 1 18 0;
#X connect 12 0 9 0;
#X connect 13 0 14 0;
#X connect 14 0 16 0;
#X connect 15 0 0 0;
#X connect 16 0 0 0;
#X connect 19 0 0 0;
#X connect 20 0 0 0;
#X restore 642 213 pd old_auto_window_size;
#X obj 54 220 poftranslate 1e+06;
#X obj 30 55 hradio 15 1 0 8 empty empty empty 0 -8 0 10 -262144 -1
-1 1;
#X obj 30 75 + 1;
#X msg 30 98 \$1 2;
#X obj 290 213 video_bank;
#X obj 285 156 s loadVideoBank;
#X msg 290 126 1;
#X msg 322 124 2;
#X msg 203 333 1;
#X msg 152 285 0;
#X msg 119 334 1 1 1;
#X obj 205 39 route film master rgb_1 cache bank;
#X floatatom 359 70 5 0 0 0 - - -;
#X obj 319 99 change -1;
#X obj 261 276 unpack f;
#X floatatom 261 299 5 0 0 0 - - -;
#X connect 1 0 28 0;
#X connect 3 0 2 0;
#X connect 4 0 56 0;
#X connect 5 0 27 0;
#X connect 6 0 5 1;
#X connect 8 0 5 1;
#X connect 8 1 5 2;
#X connect 8 2 5 3;
#X connect 9 0 5 4;
#X connect 10 0 18 0;
#X connect 11 0 10 0;
#X connect 12 0 3 0;
#X connect 13 0 12 0;
#X connect 14 0 12 0;
#X connect 15 0 12 0;
#X connect 18 0 19 0;
#X connect 18 0 30 0;
#X connect 20 0 10 0;
#X connect 21 0 3 0;
#X connect 24 0 29 0;
#X connect 26 0 22 0;
#X connect 27 0 2 0;
#X connect 28 0 5 0;
#X connect 28 1 24 0;
#X connect 28 2 45 0;
#X connect 30 0 31 0;
#X connect 30 1 32 0;
#X connect 32 0 33 0;
#X connect 33 0 34 0;
#X connect 37 0 38 0;
#X connect 38 0 43 0;
#X connect 39 0 29 1;
#X connect 41 0 40 2;
#X connect 42 0 40 1;
#X connect 43 0 10 0;
#X connect 45 0 25 0;
#X connect 46 0 47 0;
#X connect 47 0 48 0;
#X connect 48 0 17 0;
#X connect 51 0 50 0;
#X connect 52 0 50 0;
#X connect 53 0 9 0;
#X connect 54 0 39 0;
#X connect 54 0 55 0;
#X connect 54 0 53 0;
#X connect 54 0 21 0;
#X connect 55 0 8 0;
#X connect 56 0 17 0;
#X connect 56 0 59 0;
#X connect 56 1 9 0;
#X connect 56 2 8 0;
#X connect 56 3 39 0;
#X connect 56 4 57 0;
#X connect 57 0 58 0;
#X connect 58 0 50 0;
#X connect 59 0 60 0;
