#N canvas 2131 904 762 462 10;
#X obj 28 50 r videoplayers-head;
#X obj 347 154 tgl 15 0 empty empty empty 17 7 0 10 -262144 -1 -1 0
1;
#X obj 28 110 pofvisible 1;
#X obj 28 404 poffilm film\$1;
#X obj 264 91 loadbang;
#X obj 162 78 f \$1;
#X obj 347 31 r currentfilm;
#X obj 453 28 r filmfade;
#X obj 347 54 sel \$1;
#X msg 347 77 1;
#X obj 453 51 sel 0 1;
#X obj 453 75 spigot, f 12;
#X obj 523 27 r currentfilm;
#X obj 523 50 != \$1;
#X msg 453 116 0;
#X obj 347 129 change;
#X obj 621 27 r stopallfilms;
#X msg 357 205 speed \$1;
#X msg 58 220 load \$1 \, play 1 \, speed 0;
#X msg 572 211 play 0;
#X obj 28 18 inlet;
#X obj 202 82 bng 15 250 50 0 empty empty empty 17 7 0 10 -262144 -1
-1;
#X msg 567 287 play \$1;
#X obj 582 252 tgl 15 0 empty empty empty 17 7 0 10 -262144 -1 -1 0
1;
#X msg 621 253 1;
#X obj 346 173 t f f;
#X obj 288 202 sel 1;
#X msg 288 225 play 1;
#X obj 424 166 sel 0 1;
#X obj 424 212 del 20000;
#X msg 443 189 stop;
#X msg 424 241 play 0;
#X obj 463 356 route play;
#X obj 463 387 tgl 15 0 empty empty empty 17 7 0 10 -262144 -1 -1 1
1;
#X obj 162 31 r reload_allfilms;
#X obj 162 101 - 1;
#X obj 162 124 text get VideoBank;
#X symbolatom 303 424 0 0 0 0 - - -;
#X obj 110 172 route bang;
#X connect 0 0 2 0;
#X connect 1 0 25 0;
#X connect 2 0 3 0;
#X connect 5 0 35 0;
#X connect 6 0 8 0;
#X connect 7 0 10 0;
#X connect 8 0 9 0;
#X connect 9 0 15 0;
#X connect 10 0 11 0;
#X connect 10 1 11 0;
#X connect 11 0 14 0;
#X connect 12 0 13 0;
#X connect 13 0 11 1;
#X connect 14 0 15 0;
#X connect 15 0 1 0;
#X connect 16 0 14 0;
#X connect 16 0 19 0;
#X connect 17 0 3 0;
#X connect 18 0 3 0;
#X connect 19 0 3 0;
#X connect 19 0 32 0;
#X connect 21 0 5 0;
#X connect 22 0 3 0;
#X connect 22 0 32 0;
#X connect 23 0 22 0;
#X connect 24 0 22 0;
#X connect 25 0 26 0;
#X connect 25 1 17 0;
#X connect 25 1 28 0;
#X connect 26 0 27 0;
#X connect 27 0 3 0;
#X connect 27 0 32 0;
#X connect 28 0 29 0;
#X connect 28 1 30 0;
#X connect 30 0 29 0;
#X connect 31 0 3 0;
#X connect 31 0 32 0;
#X connect 32 0 33 0;
#X connect 34 0 5 0;
#X connect 35 0 36 0;
#X connect 36 0 37 0;
#X connect 36 0 38 0;
#X connect 38 1 18 0;
