#N canvas 2561 640 451 623 10;
#X declare -path hcs -path ggee;
#X obj 71 194 folder_list;
#X obj 242 106 text define VideoBank;
#X msg 71 165 symbol films/bank\$1/*;
#X obj 52 125 t b f b;
#X msg 226 178 clear;
#X obj 226 201 s VideoBank;
#X obj 71 217 text set VideoBank 1e+06;
#X obj 52 67 r loadVideoBank;
#X obj 52 270 s reload_allfilms;
#X obj 61 245 bng 15 250 50 0 empty empty empty 17 7 0 10 -262144 -1
-1;
#X obj 95 367 until;
#X obj 95 396 text sequence VideoBank;
#X msg 143 366 line 0;
#X obj 95 341 t b b;
#X obj 28 295 bng 15 250 50 0 empty empty empty 17 7 0 10 -262144 -1
-1;
#X obj 25 9 declare -path hcs -path ggee;
#X obj 95 442 pofutil;
#X msg 95 419 dirbaseext \$1;
#X obj 28 318 t b b b, f 23;
#X obj 186 488 t a;
#X obj 28 516 list, f 10;
#X obj 95 488 list prepend;
#X obj 28 539 list prepend filmfiles;
#X obj 28 562 s toClients;
#X msg 95 465 symbol f:\$2;
#X connect 0 0 6 0;
#X connect 2 0 0 0;
#X connect 3 0 8 0;
#X connect 3 0 14 0;
#X connect 3 1 2 0;
#X connect 3 2 4 0;
#X connect 4 0 5 0;
#X connect 7 0 3 0;
#X connect 9 0 8 0;
#X connect 10 0 11 0;
#X connect 11 0 17 0;
#X connect 11 1 10 1;
#X connect 12 0 11 0;
#X connect 13 0 10 0;
#X connect 13 1 12 0;
#X connect 14 0 18 0;
#X connect 16 0 24 0;
#X connect 17 0 16 0;
#X connect 18 0 20 0;
#X connect 18 1 13 0;
#X connect 18 2 19 0;
#X connect 19 0 21 1;
#X connect 20 0 22 0;
#X connect 21 0 19 0;
#X connect 21 0 20 1;
#X connect 22 0 23 0;
#X connect 24 0 21 0;
